<?xml version="1.0" encoding="UTF-8"?>
<svg id="Layer_1" data-name="Layer 1" xmlns="http://www.w3.org/2000/svg" viewBox="0 0 3036.63 1518.32">
  <defs>
    <style>
      .cls-1 {
        fill: #d8d8d8;
        fill-rule: evenodd;
      }

      .cls-2 {
        fill: #ff6c1a;
      }

      .cls-3 {
        fill: #ff3828;
      }

      .cls-4 {
        fill: #a980ff;
      }

      .cls-5 {
        fill: #ffb700;
      }

      .cls-6 {
        fill: #308cd5;
      }

      .cls-7 {
        fill: #008136;
      }

      .cls-8 {
        fill: #ffa6b5;
      }

      .cls-9 {
        fill: #353535;
      }
    </style>
  </defs>
  <g>
    <path class="cls-1" d="M0,0h1518.32v1518.32H0V0Z"/>
    <g>
      <path class="cls-6" d="M420.71,1121.62c-41.76-19.44-91.09-22.96-140.96-13.32-81.39,15.69-162.86,65.77-204.78,119.34-17.22,22.2-26.72,48.13-38.16,73.21,1.64.96,3.33,1.78,4.92,2.85,7.64,5.12,13.89,26.72,20.62,20.22.16-.15.17-.31.08-.46l-1.94-1.39c.51.38,1.69.89,1.94,1.39,15.75,11.46,29.17,17.1,39.09,24.78,4.33,3.35,8.15,7.05,11.72,10.98,12.42-24.28,19.35-51.2,36.55-73.02,25.31-32.34,71.33-61.87,119.93-77.39,31.08-9.93,63.59-14.64,91.83-7.96,13.64-22.13,24.73-46.12,43.45-65.4,4.79-4.94,10.17-9.44,15.71-13.82Z"/>
      <path class="cls-6" d="M785.08,1400.4c-11.72-20.75-24.82-40.85-39.74-58.71-13.01-15.56-28.64-28.65-47.5-38.84-14.12-7.34-28.76-12-43.76-14.89-19.61-3.82-39.89-4.32-60.06-4.78-19.13-.46-38.36.38-55.39-8.6-11.62-6.17-17.3-18.37-23.18-30.45-10.29-21.12-18.65-43.89-29.36-62.9-6.54,4.85-12.91,9.83-18.47,15.46-20.26,20.57-29.41,48.12-45.98,70.49,8.91,20.13,18.58,40.09,31.52,56.53,11.21,14.22,24.63,26.18,41.02,34.86,14.19,7.51,28.99,12.25,44.26,15.14,19.4,3.65,39.62,4.11,59.88,4.61,19.04.42,38.36-.13,55.78,8.89,11.8,5.79,20.53,14.64,28.31,24.46,11.97,15.13,20.85,33.29,32.31,49.09,8.49,4.1,14.82,11.23,18.2,19.65,1.18.86,2.37,1.71,3.67,2.56,14.04,17.58,39.7,20.43,57.28,6.42,5.21-4.17,8.95-9.41,11.52-15.11-20.1-26.35-24.8-50.85-20.32-73.88Z"/>
      <path class="cls-6" d="M43.39,1420.97c.19.53.04,1.09-.52,1.67-.47.5-1.8-1.42-1.13-1.74.73-.34,1.28-.3,1.64.07-.78-2.66-9.13-4.86-13.25-7.58-8.04-5.29-17.05-11.23-26.69-19.32-1.2-1.01-2.34-2.69-3.45-4.58v63.3c14.02-5.28,27.84-11.05,41.11-18.34.88-.48,1.69-1.13,2.57-1.62.65-5.7,1.1-10.69-.29-11.85Z"/>
      <path class="cls-2" d="M7.86,1052.54l-7.86-60.53v82.95c1.66-.58,3.32-1.1,4.93-1.91,1.01-.51,1.85-1.21,2.79-1.8.63-6.9.7-13.27.14-18.71Z"/>
      <path class="cls-8" d="M412.97,541.92c.01-7.21,5.9-13.09,13.14-13.09s13.11,5.91,13.1,13.13c7.57,6.04,8.18,3.78,14.09,11.87,1.18,1.59,1.38,3.23,1.94,5.16,1.91,6.71,2.79,13.51,3.3,20.4.31-.12.62-.21.94-.33,14.29-5.7,28.69-14.65,43.45-24.56-1.2-3.04-2.23-6.11-2.91-9.27-1.33-6.21-2.56-11.54-2.22-17.83.93-9.94,1.01-17.95,3.02-27.64,2.48-11.87,6-20.97,7.08-33.56-2.68-8.98,2.43-18.41,11.39-21.1,8.96-2.68,18.41,2.39,21.09,11.37l32.68,50.67c.78,1.21,2.01,1.87,3.24,2.56,10.39-3.87,21.39-5.77,33.43-3.37.75.15,1.5.66,2.26.49,4.66-1.05,1.75-3.93,5.76-6.8,20.85,6.25,42.85-5.6,49.1-26.46,6.25-20.85-5.6-42.85-26.45-49.1-2.35-6.12-1.38-5.99-6.28-10.05-1.56-1.29-3.92-.9-5.87-1.28-21.2-4.21-41.22-3.6-60.3.39-39.9,8.35-75.44,33.29-108.4,56.19-10.01,6.96-19.72,13.58-29.43,18.44-6.78,3.39-13.16,7.12-20.19,4.13,2.29.96,7.78,2.93,5.7,4.27-11.84,7.63-8.84-30.09-13.34-44.64-4.96-16.04-11.81-29.9-20.71-40.01-19.75-22.14-77.2-60.27-139.44-87.95-19.33-8.6-38.93-16.34-57.78-22.1-43.91-13.41-82.24-19.04-102.24-15.34-13.08,4.48-24.92,6.77-30.03,18.11-1.05,2.34-2.18,3.69-2.48,6.33-.72,6.37,1.37,7.47.84,14.31-5.42,4.81-5.91,13.11-1.1,18.52,4.81,5.42,13.11,5.91,18.53,1.1,9.6-.78,19.85-9.93,21.64-1.68.43,1.98-1.34,5.14-3.59,4.67,13.63.81,35.07,14.58,62.23,28.09,33.03,16.44,70.95,36.62,103.27,56.16,25.79,15.6,48.25,29.26,58.31,40.1-7.22,4.77,5.55,18.95,8.23,29.69,4.17,16.76,9.72,32.87,17.73,45.58,9.12,14.48,21.36,25.4,37.03,32.16,4.28,1.82,8.53,3.26,12.77,4.49,3.85-11.18,7.31-22.26,13.86-31.99,5.18-7.68,6.6-4.66,13.63-10.28Z"/>
      <path class="cls-2" d="M1415.03,993.44c-23.53,9.05-49.9,12.36-76.24,13.91,22.87,5.65,48.17,9.76,72.41,16.62,18.83,5.33,37.44,12.29,48.91,30.36.41.64.55,1.54,1.2,1.97,3.98,2.65,4.05-1.44,8.9-.52,9.06,17.79,29.77,25.59,48.11,19.17v-82.94l-1.56-12.01c-.03-1.63.03-3.28.02-4.92-5.83-5.5-11.91-10.59-18.38-15.04-6.78-4.66-13.99-8.59-21.4-12.18-17.03,22.32-38.32,36.5-61.97,45.58Z"/>
      <path class="cls-2" d="M1221.03,511.68c-2.42.86-4.17.97-6.3,2.58-5.1,3.88-4.45,6.15-9.77,10.48-7.22-.6-13.56,4.78-14.16,11.99-.6,7.22,4.77,13.56,11.99,14.16,7.2,6.4,20.89,7.5,16.16,14.5-1.13,1.68-4.64,2.58-5.86.62,8.82,10.42,13.67,35.43,22.64,64.41,10.91,35.24,22.49,76.61,30.67,113.48,6.52,29.43,12.15,55.11,11.25,69.86-8.44-1.93-9.88,17.1-15.8,26.45-9.25,14.59-17.07,29.72-20.73,44.29-3.17,12.6-3.58,25.08-1.02,37.37,16.32-4.39,34.31-6.82,53.52-7.72,17.97-.87,37.26-.31,55.71-2.3-.02,0-.04-.01-.06-.02-7.14-2.57-14.24-4.61-16.92-11.76.88,2.32,3.25,7.65.84,7.07-13.7-3.3,15.66-27.17,23.09-40.47,8.18-14.66,13.48-29.19,14.64-42.6,1.74-21.57-4.29-63.55-16.54-109.54-3.6-9.62-6.6-19-8.68-28.04-.34-1.49-.55-2.94-.86-4.42-2.1-6.54-4.23-13.09-6.56-19.59-7.12-19.92-15.05-39.44-23.9-57.06-7.81-15.55-15.88-29.73-23.79-42.02-11.92-9.74-22.53-21.71-32.07-35.22-1.88-2.66-3.62-5.52-5.44-8.27-11.43-6.08-20.88-12.19-32.03-8.25Z"/>
      <path class="cls-7" d="M42.87,1422.63c.55-.58.7-1.14.52-1.67-.37-.37-.91-.41-1.64-.07-.68.31.66,2.23,1.13,1.74Z"/>
      <path class="cls-7" d="M101.52,1348.23c-9.92-7.68-23.34-13.31-39.09-24.78.09.16.08.31-.08.46-6.73,6.5-12.98-15.11-20.62-20.22-1.59-1.07-3.29-1.89-4.92-2.85-4.97-2.9-10.09-5.4-15.76-6.65-7.02-1.54-14.02-2.1-21.05-1.8v97.09c1.11,1.9,2.25,3.57,3.45,4.58,9.64,8.09,18.65,14.03,26.69,19.32,4.12,2.71,12.47,4.91,13.25,7.58,1.39,1.17.94,6.16.29,11.85-.38,3.36-.81,6.91-1.03,10.24-2.1,33.03-19.28,50.2-42.65,60.44v14.82h117.47c10.12-18.78,16.9-41.22,19.06-68.58,2.59-32.89-1.82-53.56-8.65-68.44-3.93-8.58-8.86-15.72-14.64-22.08-3.57-3.93-7.39-7.63-11.72-10.98Z"/>
      <path class="cls-7" d="M62.44,1323.45c-.25-.5-1.43-1.01-1.94-1.39l1.94,1.39Z"/>
      <path class="cls-8" d="M1187.91,1435.61c-13.84-26.3-33.26-48.49-60.57-63.89-21.33-11.98-42.51-16.78-63.5-16.53-.02.02-.04.03-.06.04-6,15.81-23.7,23.78-39.52,17.79-4.4-1.67-8.11-4.3-11.17-7.49-33.68,12.92-66.59,35.4-97.63,47.38-6.13,2.39-12.66,4.61-19.27,5.96-4.91,1.01-10.41,3.99-13.98-.29-.83-.96-1.78-2.43-2.43-3.48.7-1.34,1.83-3.48,2.74-4.78,4.13-6,9.48-11.7,15.05-17.45,19.94-20.6,41.54-41.49,52.66-62.92,6-11.54,9.66-23.45,10.78-35.57,1.25-13.55-.27-27.1-3.89-40.4-5.73-21.06-17.62-41.57-26.91-59.61-9.26-17.87-12.86-42.66-22.13-62.59-7.35-15.81-17.09-29.61-29.99-40.19-15.42-12.63-37.91-20.18-63.89-20.3-36.99-.21-82.2,14.14-104.23,26.34l-41.69,32.47c-24.85,14.18-47.87,18.29-70.15,33.68-2.03,1.38-4.82,1.97-6.05,4.19-7.11,12.79-3.65,9.19-3.73,25.04-6.04,4.03-7.69,12.16-3.7,18.21,4,6.04,12.14,7.68,18.18,3.69,12.96,5.45,6.26,10.15,19.13,11.75,1.45.17,2.79-.38,4.17-.71,13.75-3.1,26.05-1.01,39.48-2.22,11.49-1.01,22.83-3.98,35.15-7.26,6.99-2.56,13.38-5.91,19.41-9.77,12.38-7.84,21.33-20.18,34.44-27.18,9.98-5.37,28.29-10.99,45.9-13.21,5.99-.76,15.42-.21,19.09.04,2.32,3.02,3.31,7.09,4.76,10.95,7.59,20.43,12.47,43.29,21.38,60.61,5.16,10.03,11.68,20.89,16.54,32.26,2.17,5.08,4.6,10.15,4.11,15.48-.33,3.65-4,6.12-6.78,9.52-4.54,5.5-9.81,10.91-15.19,16.32-20.71,20.93-41.7,42.74-51.75,65.4-3.41,7.68-6.01,15.51-7.57,23.51-4.48,23.03.23,47.53,20.32,73.88,1.34,1.76,2.4,3.48,3.88,5.25,17.43,20.85,38.81,31.04,61.76,34.31,25.57,3.65,53.96-2.77,78.65-12.29,31.09-12.04,63.69-36.91,97.43-47.95,11-3.61,22.27-5.45,33.63.96,15.11,8.47,23.08,22.99,28.99,38.68,3.04,8.08,5.45,16.52,7.57,25.07h96.28c-5.47-28.64-12.64-57.84-25.69-82.7Z"/>
      <path class="cls-4" d="M1256.28,356.55c-2.01.59-4.07.96-6.17,1.26,1.89-.25,6.12.04,6.17-1.26Z"/>
      <path class="cls-4" d="M965.43,678.16c-3.89-2.2-15.68,1.48-21.84.18-5.19-1.1-10.28-2.67-15.34-4.8-11.67-4.94-24.31-9.83-36.76-11.83-3.99-.64-8.09-1.22-11.81-.49l2.96,7.79c6.41,17.62,15.06,36.74,22.34,56.01,9.89-9.57,19.63-19.86,30.22-26.75,9.82-6.37,20.01-13.13,30.23-20.1Z"/>
      <path class="cls-4" d="M630.96,749.14c.4,1,.76,1.56,1.14,2.3,5.21,2.58,10.82,4.86,17.63,6.3,7.05,1.47,14.22,2.35,21.46,2.77,17.51.96,35.66-2.64,52.28.42,25.3,4.66,54.64,8.52,82.96,6.54,4.15-.29,8.25-.83,12.35-1.37-.58-1.7-1.05-3.38-1.67-5.08-7.46-20.48-16.99-40.9-23.78-59.6-3.04-8.39-6.58-17.78-9.16-27.32-15.27-.49-30.41-2.76-43.99-5.21l-19.46-.67c-2.67,4.04-5.46,7.97-8.52,11.75-10.75,13.31-23.94,25.37-42.95,35.77-12.68,6.92-26.42,12.28-40.73,16.85-.37.12-.77.21-1.14.33,4.84,3.86,6.6,10.58,3.58,16.23Z"/>
      <path class="cls-4" d="M1257.99,281.19c-6.67,2.81-14.37-.33-17.18-7.01-2.32.65-3.38,1.23-4.01,1.77,8.72,3.66-2.99,2.56,0,0-.05-.02-.05-.03-.09-.05l-1.1-.46c-2.45-.95-2.38-4.51-3.62-6.78-.62-1.14-1.06-2.31-1.54-3.48-5.38,1.28-10.62,2.93-15.62,5.33-7.84,3.78-21.77,13.76-24.96,16.11-24.2,6.42-53.48,2.18-78.74,8.64-19.34,4.99-37.12,13.88-52.4,29.11-22.48,22.36-35.14,46.31-42.66,71.02-6.53,21.44-8.88,43.46-10.71,65.44-1.79,21.48-1.89,43.12-12.77,62.67-8.46,15.14-20.26,28.4-33.35,40.44-5.2,4.79-10.65,9.33-16.18,13.78,6.96,2.39,13.82,4.99,20.45,7.77.31-.31,1.27.52,1.84.76l-1.84-.76-.06.14c-2.53,11.55,23.34,2.17,34.09,6.17,15.77,5.91,28.78,15.68,39.21,28.44,14.95-15.45,28.12-32.27,38.41-50.69,2.01-3.59,3.42-7.3,5.1-10.96-1.6-3.22-3.24-6.43-4.5-9.8-7.88-21.1-10.18-45.34.58-75.88,5.72-19.21,15.04-32.59,25.47-44.17,1.41-1.56,3.03-2.88,4.53-4.33.13-.45.19-.92.33-1.37,3.36-10.91,8.93-21.52,18.88-31.42,4.32-4.28,10.11-4.91,15.77-5.75,9.16-1.32,18.59-1.9,28.01-2.44,20.9-9.21,39.2-11.53,55.49-9.62,12.17-8.74,25-28.1,31.27-17.72.13.17.17.34.17.46,22.65-6.08,37.84-28.23,34.65-52.1-2.12-15.81-11.86-28.69-24.96-35.63.11,5.22-2.87,10.23-7.98,12.37Z"/>
      <path class="cls-4" d="M540.38,456.47c-2.68-8.98-12.13-14.05-21.09-11.37-8.96,2.68-14.07,12.12-11.39,21.1-1.09,12.58-4.6,21.69-7.08,33.56-2.01,9.69-2.09,17.7-3.02,27.64-.34,6.29.9,11.62,2.22,17.83.67,3.16,1.71,6.23,2.91,9.27,3.71,9.43,9.08,18.48,11,28.44,3.27,12.21,2.17,26.05,5.06,38.34,1.55,6.59,3.73,12.92,6.63,18.92,3.41,7.08,7.2,13.59,11.21,19.8,20.59-6.7,42.43-11.51,63.05-18.02,8.36-2.68,16.46-5.6,23.86-9.65,2.43-1.33,4.35-2.8,6.28-4.27-.13-.13-.27-.24-.4-.37-7.84-7.93-14.96-16.7-20.39-27.9l-5.83-41.07c-2.52-8.26-5.47-16.4-9.72-23.95-4.52-8.05-9.59-15.73-14.82-23.11-.66-.93-1.62-1.45-2.57-1.97-1.23-.68-2.46-1.35-3.24-2.56l-32.68-50.67Z"/>
      <path class="cls-9" d="M378.56,214.07c-8.5-8.14-3.23-8.68-2-8.9-.01-.07-.03-.14-.04-.21-.71-.2-2.84-.65-7.68-1.87-2.01-.5-3.9.29-5.83.67-10.65,2.1-19.46-4.03-29.83-5.79-20.6-3.52-41.95-8.26-62.84-12.54-10.4-1.8-21.14-2.18-32.13-1.59-25.59,1.43-53.02,12-77.47,8.77l-45.26-11.76c-7.34.38-14.68-1.43-20.92-5.44l-34.51-8.97c-14.28-2.52-36.49-8.56-60.05-13.5v96.24c17.24,3.97,32.88,8.03,43.73,9.92,26.98,4.74,52.5,15.56,79.22,21.85,8.45,2.01,17,3.65,25.68,4.78,10.15,1.3,20.63,1.38,31.31.55,24.83-1.93,51.26-12.5,74.62-8.52,28.31,3.48,57.59,12.33,85.03,8.14,18.46-2.81,39-5.12,52.63-17.67-.27-4.61-.51-9.03-.74-12.95-.78-14.82-9.2-27.38-12.94-41.21Z"/>
      <path class="cls-9" d="M157.86,727.22c-7.08-1.63-12.94-.5-19.69-.17-9.26.42-11.06-2.59-20.25-4.58-6.27,3.62-14.31,1.47-17.92-4.83-3.61-6.3-1.46-14.29,4.81-17.91,2.75-8.59,1.75-11.19,6.13-18.9,1.35-2.39,3.4-3.66,5.4-5.44,11.9-10.76,27.13-14.09,44.32-16.45,9.82-1.32,34.4,2.2,62.05,8.54,6.31,1.44,12.63,3.22,18.88,5.13,10.71-12.39,20.29-25.39,27.24-39.81,14.43-29.82,20.39-64.93,7.51-110.24-5.66-20.05-16.49-35.19-30.5-47.11-19.51-16.61-48.2-24.41-69.72-35.49-12.84-6.63-21.06-16.95-32.65-23.83-9.12-5.45-19.25-9.86-31.34-12.5-32.2-7.09-60.23-3.69-87.33.5-8.33,1.3-16.5,2.9-24.81,3.5v77.81c8.66,3.26,17.45,7.91,26.05,14.52,20.47-2.98,41.18-9,65.72-3.59l40.82,27.98,52.39,24.12c4.99,17.66,3.94,31.42-1.68,43.04-16.91,35.03-55.05,57.68-78.42,89.35-9.08,12.29-17.95,25.04-22.08,39.85-1.47,5.29-3.72,10.45-3.06,15.98.79,6.71.85,10.49,3.73,16.86-3.09,20.64,11.16,39.89,31.8,43,20.63,3.06,39.9-11.2,42.98-31.84,2.32-2.39,5.12-1.17,7.1-3.73,1.63-2.1,3.75-3.57,4.97-5.87,2.71-5.09,5.65-9.96,8.89-14.64-5.57-3.28-10.81-6.34-15.45-8.63-3.03-1.5-4.33-4.24-5.91-4.64Z"/>
      <path class="cls-6" d="M0,611.53c15.28,11.59,36.81,12.65,53.18.86,20.1-14.47,24.69-42.49,10.24-62.59-1.25-3.65-2.28-6.75-4.03-9.9-10.15-18.15-21.57-30.86-33.35-39.92-8.6-6.61-17.38-11.26-26.05-14.52v126.07Z"/>
      <path class="cls-9" d="M1479.64,477.66c11.66.84,25,2.66,38.68,7.81v-77.81c-7.82.56-15.75.24-24.07-2.24-15.86-4.7-32.09-17.07-52.28-40.35-2.78-3.19-2.77-9.27-3.85-15.86-2.51-15.39-2.77-33.73-1.15-51.72,1.6-17.7,4.92-35.11,10.41-48.83,1.19-2.98,3.45-7.01,4.71-9.14,10.12-2.77,24.67,1.34,39.21,3.98,9.17,1.68,18.28,3.67,27.01,5.68v-96.24c-14.42-3.02-29.35-5.63-43.29-6.76-25.96-2.1-49.42,1.05-66.5,9.1-27.52,13.05-53.66,55.62-62.66,108.98-6,35.57-6.12,75.09-.41,105.5,4.7,25.04,14,45.01,24.8,57.47,23.4,27.01,44.94,44.3,64.95,55.52,15.08-3.85,29.68-6.13,44.42-5.09Z"/>
      <path class="cls-6" d="M959.52,855.82c-3.25,1.93-2.1,1.51-.01.33,3.91-2.56,6.34-4.07.01-.33Z"/>
      <path class="cls-6" d="M925.74,880.31h0c-2.07-.28-12.2,10.7,0,0Z"/>
      <path class="cls-6" d="M1169.36,383.43c-5.73,2.53-11.63,5.51-17.76,9.11-17.8,10.99-32.96,19.96-45.23,31.87-1.5,1.45-3.13,2.78-4.53,4.33-10.43,11.58-19.75,24.96-25.47,44.17-10.77,30.54-8.46,54.78-.58,75.88,1.26,3.37,2.9,6.58,4.5,9.8,7.42,14.99,18.09,28.58,30.55,41.63,12.62,13.26,27.78,25.59,36.09,42.53,12.96,24.33,17.61,46.65,16.72,69.42-1.03,26.59-8.42,53.48-16.26,83.73-1.68,5.83-7.32,13-12.76,20.05-4.53,5.87-9.41,11.45-13.7,14.55-1.2-3.31-8.26,1.85-13.99,2.73-.9.14-1.98.21-2.92.34-.04.07-.03.14-.07.21-5.52,8.75-3.46,2.37-11.42,8.73,1.33,7.1-3.35,13.98-10.46,15.33-7.11,1.35-13.97-3.32-15.34-10.45-9.9-3.04-6.09,2.49-13.86-4.58-1.81-1.65-3.37-3.48-4.79-5.4-17.34,1.17-34.84,2.54-50.5,3.67-12,.84-22.02,3.73-30.42,3.31-1.9-.08-5.01,2.14-4.95.63.13-2.89-1.71,6.71.3,6.38,6.34-1.09.42,2.81-2.98,4.74l-2.53,1.64-3.32,2.22c-5.27-6.75-14.95-8.43-22.21-3.61-7.64,5.07-9.73,15.35-4.68,22.99l-1.02.92c.89.12.32,2.29-4.22,9.23-2.06,3.15,1.14.21.51,4.15-.72,4.49,3.28,4.32,6.18,8.93,8.06,12.75,36.8,18.96,69.27,24.66,14.58,2.52,30.62,3.57,46.73,3.4,53.05-.71,105.1-14.81,119.83-24.33,11.52-7.42,26.96-22.65,39.2-40.56,11.63-17.03,21.01-35.74,24.09-49.5,11.4-44.84,20.02-83.94,18.18-123.28-1.34-28.73-8-57.68-23.49-88.89-8.18-15.31-19.08-28.73-31.29-40.9-12.68-12.63-27.35-23.2-36.61-36.66-4.82-6.96-6.25-15.27-2.21-26.68,2.87-6.88,7.4-10.53,12.09-13.89,8.48-6.08,18.83-9.77,30.32-15.27,9.19-4.61,15.28-7.05,20.42-3.94,7.07,4.28,11.73,12.29,17.11,20.34,7.09,10.58,14,21.89,21.2,32.8,1.82,2.75,3.56,5.61,5.44,8.27,9.54,13.51,20.15,25.49,32.07,35.22,12.98,10.61,27.52,18.55,44.08,22.62,14.54,3.54,27.95,4.93,40.55,4.99,10.86-9.2,26.4-11.07,39.3-4.15,2.91-.62,5.79-1.26,8.61-1.97,18.55-4.66,33.72-13.59,49.83-12.46,9.74.67,15.03,11.37,29.41,25.34,1.9,1.84,4.3,2.64,6.54,4.36,2.68,3.73,5.94,6.73,9.42,9.37v-126.07c-13.68-5.15-27.02-6.97-38.68-7.81-14.74-1.04-29.34,1.24-44.42,5.09-3.85.98-7.72,2.01-11.64,3.17-18.39,5.5-38.72,14.56-66.52,7.8-6.02-1.43-10.01-6.25-14.14-11.03-8.65-10.11-15.93-22.32-23.45-33.98-16.94-26.34-35.3-50.38-58.16-62.92-10.94-6-23.03-10.39-36.47-11.97-16.29-1.91-34.59.41-55.49,9.62Z"/>
      <path class="cls-6" d="M1420.97,0h-63.44c-.07,6.99.62,14.08,1.78,21.53,17.47-4.31,36.1-7.68,55.13-10.89,1.83-3.51,3.97-7,6.53-10.64Z"/>
      <path class="cls-7" d="M307.71,701.99l-7.06-4.27c-8.06-4.57-26.03-13.9-47.27-21.34-3.84-1.34-7.81-2.56-11.78-3.77-6.25-1.9-12.56-3.68-18.88-5.13-27.65-6.34-52.24-9.85-62.05-8.54-17.2,2.36-32.42,5.68-44.32,16.45-2,1.78-4.05,3.05-5.4,5.44-4.38,7.71-3.38,10.32-6.13,18.9-6.27,3.62-8.43,11.61-4.81,17.91,3.61,6.29,11.65,8.45,17.92,4.83,9.19,1.98,10.99,5,20.25,4.58,6.75-.33,12.61-1.46,19.69.17,1.58.4,2.88,3.14,5.91,4.64,4.64,2.29,9.88,5.35,15.45,8.63,4.12,2.42,8.35,4.93,12.99,7.45,8.44,4.58,17.07,9.37,25.6,13.54,15.19,7.44,29.18,13.26,35.12,16.89,11.28,6.87,21.87,15.62,33.66,21.8,5.59,2.93,11.48,5.19,17.53,7.11-2.04-13.12-3.69-26.49-4.23-39.72-.93-22.87,1.41-45.18,7.82-65.57Z"/>
      <path class="cls-7" d="M599.87,641.99c-20.62,6.51-42.46,11.32-63.05,18.02-6.53,2.12-12.96,4.42-19.16,7.04-50.82,21.47-78.37,44.02-115.54,52.44-.58.13-1.24.16-1.82.29-1.75,2.39-3.38,4.94-4.5,8.01-4.04,11.12-4.74,23.57-4.29,36.33.61,17.49,3.54,35.32,6.73,52.03,8.73-.87,17-2.2,24.91-4,42.07-9.53,74-33.3,131.48-57.57,10.33-4.37,21.36-7.64,32.55-10.67,1.5-1.29,2.85-2.78,4.54-3.79,7.56-4.49,8.19-1.55,16.07-3.27,3.4-6.42,11.35-8.85,17.75-5.45.73.39,1.21,1.01,1.84,1.51.38-.12.77-.21,1.14-.33,14.31-4.56,28.05-9.93,40.73-16.85,19.01-10.4,32.2-22.46,42.95-35.77,3.06-3.78,5.85-7.71,8.52-11.75,7.87-11.92,14.69-24.91,24.13-38.63,10.5-15.21,23.88-27.28,34.53-41.83,6.71-9.15,12.63-19.01,17.33-30.11,8.32-19.6,10.71-36.76,9.78-53.13-1.14-20.14-8.2-39.27-17.63-62.19-6.86-16.73-17.67-43.41-30.27-64.29-8.37-13.82-17.82-25.42-27.17-33.23-19.63-16.36-40.75-26.15-62.89-31.64-29.64-7.43-61.33-6.52-93.08-4.85-28.8,1.55-58.04,6.13-83.01-8.72-.91-6.32-5.38-37.5-6.1-49.86-.44-7.61-1.61-14.99-3.47-22.17-3.95-15.3-13.54-28.78-15.17-44.59-1.08-8.29.8-18.15,4.31-27.91,5.19-14.43,13.68-28.04,21.24-39.74,2.16-3.33,1.83-7.13,3.82-10.1,8.87-7.1,13.37-17.52,13.48-28.07-23.36-7.01-48.54-12.05-72.77-21.7-.68.44-1.3.75-2.01,1.23-16.13,10.9-27.91,30.93-38.81,50.06-15.82,27.75-23.34,58.95-22.22,84.37.21,4.7.91,9.29,1.77,13.84.01.07.03.14.04.21.49,2.57.97,5.15,1.6,7.7.1.41.29.79.4,1.2,3.74,13.82,12.15,26.39,12.94,41.21.23,3.92.47,8.34.74,12.95,1.16,19.47,3.2,43.83,10.36,63.29,7.01,19.13,18.36,34.61,33.52,44.8,20.35,13.75,42.08,21.38,64.74,25.17,28.73,4.76,59.16,2.69,89.34,1.25,28.3-1.41,56.92-4.47,80.37,15.07,5.33,4.43,9.24,13.35,13.56,22,6.91,13.9,12.68,28.52,16.85,38.63,4.39,10.65,8.73,19.59,10.34,28.82.72,4.13.06,8.28-2.07,13.31-2.52,5.95-6.18,10.84-9.99,15.54-10.67,13.19-22.71,25.21-32.62,39.57-11.14,16.18-17.7,31.45-28.34,44.6-2.27,2.81-5.09,5.37-8.27,7.8-1.93,1.47-3.86,2.95-6.28,4.27-7.41,4.04-15.5,6.97-23.86,9.65Z"/>
      <path class="cls-3" d="M966.37,492.15c1.14,1.46,1.08-.6,0,0h0Z"/>
      <path class="cls-3" d="M833.41,113.36c2.01.55,4.5.26,5.78,1.74,5.51,6.36,6.26,2.51,6.84,10.17,4.05,2,7.5,4.72,10.31,7.92,32.93-8.53,62.52-25.26,89.9-42.3,18.62-11.58,35.55-23.72,53.51-28.81,8.58-2.43,17.4-3.93,26.62-.54,12.03,4.43,23.61,14.74,36.62,30.4-12.38,4.21,5.52,32.61,12.07,43.84,6.62,11.37,8.99,23.47,8.69,34.67-.18,6.67.07,13.51-3.47,18.9-3.33,5.08-9.25,8.19-15.83,10.3-3.29,1.06-6.75.3-10.47-.34.08-.1.13-.23.16-.39,1.79-9.4-19.82-6.65-28.64-9.45-14.13-4.49-27.03-5.01-37.78-2.53-8.34.99-16.44-.77-24.75-.25-23.37,1.46-46.72,4.64-70.39,7.24-17.15,1.88-34.23,4.22-51.1,9.11-10.99,2.76-24.59,10.42-37.19,22.78-10.21,10.01-19.77,23.7-28.82,34.42-4.83,5.71-9.33,10.31-12.76,14.24-12.33,21.88-13.92,45.42-5.09,69.8,16.52,45.56,83.48,97.35,99.55,119.89,1.37,2.15,5.04,16.01,12.12,28.56,4.53,8.03,10.38,14.91,14.88,20.95,15.32,20.5,30.9,29.62,33.12,29.66,11.47.37,25.88-3.04,25.88-3.04,0,0-4.54-.24-5.24-2.87-.9-3.4-1.65-4.83-2.08-5.42.04.03.03.05.08.08.96.49,3.46.6,8.43-3.89,7.95,5.1,18.55,2.78,23.64-5.18,5.09-7.95,2.77-18.55-5.18-23.64,1.59-5.08,2.79-6.81,3.54-7.24,0,0,.01,0,.02,0-.54-.69-1.32-2.09-2.43-5.07-2.58-6.9-9.33-9.26-16.27-9.65-1.03-4.71-2.28-9.95-4.29-15.2-7.66-20-20.21-39.1-22.45-42.17-9.92-14.31-41.6-39.88-66.15-68.84-6.51-7.68-11.96-15.91-16.22-23.86-2.28-4.26-7.77-12.33-3.81-12.4.37,0,.47.3.42.73,1.52-3.96,3.16-8.99,6.23-13.9,5.48-8.78,23.51-15.43,22.03-22.44,37.39-4.87,74.8,5.69,110.91,0,8.89-1.4,17.33-3.96,25.65-7.19,3.82,5.87,21.73,6.35,30.56,9.21,11.62,3.76,23.03,4.19,33.37,2.79,11.83-5.02,21.83-9.48,31.3-15.42,26.88-16.86,46.78-36.35,55.63-62.48,7.74-22.88,8.25-49.06.47-74.99-8.04-12.68-14.24-26.47-17.65-41.57-1.55-6.86-2.87-14.26-4.13-21.88-2.37-6.23-5.18-11.84-8.85-16.04-24.33-27.9-47.07-43.25-68.01-51.78h-89.97c-13.05,4.73-26.15,11.02-39.27,18.64-30.35,17.62-60.69,43.25-99.18,49.32-41.9,5.22-71.71,5.72-88.38-8.18-6.51-5.43-7.22-14.32-7.49-25.37-.25-10.03.65-21.5,2.97-34.42h-77.53c-.38,2.02-.98,4.17-1.28,6.14-8.02,54.11,8.32,90.26,36.5,112.01,9.5,7.33,21.4,13.03,35.36,17.16,19.36-10.19,44.17-19.52,66.86-22.89,15.92-2.37,30.81-2.16,42.11.94ZM930.49,478.58l1.33.43c-2.09.46-3.38.86-3.38.86,0,0,1.15-1.64,2.05-1.29Z"/>
      <path class="cls-5" d="M522.09,80.71c7.26,2.53,13.76,6.18,20.2,9.98,7.34,4.33,15.38,8.33,20.88,17.33,6.98,13.15.19,29.33-3.39,44.93-5.33,23.2-10.01,45.83-6.94,65.4,4.5,28.72,19.82,54.77,62.35,69.44,28.26,8.14,49.08,6.08,66.28-1.8,16.82-7.7,30.75-20.45,42.74-37,9.19-12.69,17.29-27.93,28.3-39.24,3.43-3.49,12.06-5.6,21.08-8.73,14.19-4.92,40.03-19.09,42.02-7.81.55,3.1,2.97-5.78,1.53-7.55,16.42,7.66,36.07.81,44.12-15.54,6.17-12.53,3.77-27.04-4.92-36.93-2.81-3.2-6.26-5.92-10.31-7.92-.58-7.66-1.33-3.82-6.84-10.17-1.29-1.48-3.78-1.2-5.78-1.74-11.29-3.1-26.18-3.31-42.11-.94-22.7,3.37-47.5,12.7-66.86,22.89-13.2,6.95-23.94,14.29-29.48,20.48-9.92,10.99-18.19,24.25-26.15,37.26-4.79,7.83-8.65,16.14-15.03,21.04-2.72,2.09-5.52-1.77-10.38-3.89-8.54-3.17-8.02-9.59-7.13-16.12.69-5.09,1.57-10.37,2.72-15.71,5.7-26.28,11.4-53.79,8.87-78.54-1.08-10.55-3.91-20.55-7.99-30.53-11.11-27.3-27.9-45.86-47.88-58.81-6.64-4.3-13.83-7.6-21.25-10.5h-181.2c2.8,6.19,6.1,11.58,9.82,15.32,6.34,14.99,23.73,35.08,38.23,40.08.07.03.14.05.21.07,24.23,9.65,49.41,14.69,72.77,21.7,3.86,1.16,7.79,2.24,11.53,3.54Z"/>
      <path class="cls-9" d="M868.3,566.83c-28.28,3.45-54.35,16.34-74.61,45.1-9.08,12.94-12.81,26.67-12.88,40.78-.04,6.99,1.42,14.23,3.36,21.39,2.58,9.54,6.12,18.93,9.16,27.32,6.78,18.7,16.32,39.12,23.78,59.6.62,1.7,1.08,3.38,1.67,5.08,2.99,8.69,5.59,17.35,6.64,25.78.42,3.38-3.04,4.18-5.37,5.73-2.84,1.87-5.89,3.56-9.01,5.18-16.98,8.81-35.5,16.13-49.38,25.07-15.74,10.14-26.57,20.39-41.25,30.88-1.14.83.09,2.78-1.03,3.8-23.34,7.2-36.46,32-29.27,55.32,7.21,23.39,31.98,36.5,55.36,29.33,2.96,1.18,4.2.95,7.31.9,5.42-.09,9.79-4.03,14.27-6.43,16.97-9.03,28.52-22.67,46.03-33.91,12.47-8.02,29.54-14.06,44.6-22.13,17.12-9.18,32.25-20.41,43.07-34.27,14.33-18.37,22.71-41.08,18.97-71.18-1.63-13.07-4.93-26.5-9.31-39.98-1.64-5.05-3.52-10.12-5.43-15.18-7.27-19.27-15.92-38.39-22.34-56.01l-2.96-7.79c3.72-.74,7.83-.15,11.81.49,12.45,2,25.09,6.9,36.76,11.83,5.06,2.14,10.16,3.71,15.34,4.8,6.16,1.3,17.95-2.38,21.84-.18.99.56,1.61,1.41,1.32,2.94-.13.57-1.11-.34-1.69-.55-.5-.18-1.04-1.22-1.35-.8-5.49,7.72,8.89,17.36,11.9,27.56,4.91,16.7,8.9,32.96,13.89,44.54,4.16,7.9,8.41,15.67,14.4,22.44,7.3,8.26,17.08,14.24,23.18,23.37,9.72,11.69,12.18,27.89,20.99,39.77,1.42,1.92,2.98,3.75,4.79,5.4,7.77,7.08,3.96,1.55,13.86,4.58,1.37,7.12,8.23,11.8,15.34,10.45,7.11-1.35,11.79-8.22,10.46-15.33,7.95-6.37,5.9.01,11.42-8.73.04-.07.03-.14.07-.21,1.26-2.13,1.14-4.33,1.53-6.84,1.92-12.54,1.92-24.32.89-36.98-.82-9.84-4.48-18.86-7.65-28.06l-23.81-45.93c-8.49-20.54-13.65-56.31-28.32-81.32-2.98-5.08-6.28-9.81-9.87-14.21-10.43-12.77-23.44-22.54-39.21-28.44-10.75-4-36.62,5.37-34.09-6.17l.06-.14c-6.63-2.79-13.49-5.39-20.45-7.77-24.72-8.48-50.95-13.77-74.77-10.89Z"/>
      <path class="cls-9" d="M963.52,585.5l1.84.76c-.57-.24-1.53-1.07-1.84-.76Z"/>
      <path class="cls-3" d="M486.09,1181.22c12.63-9.37,26.1-18.12,37.03-29,11.41-11.33,20.73-24.41,26.99-40.02,9.33-23.32,9.84-46.06,4.98-68.21-7.51-34.27-32.63-66.99-45.03-97.61-7.48-18.46-12.63-37.84-22.79-54.36-6.41-10.4-14.46-19.88-24.84-28.15-11.05-8.77-23.88-14.77-37.22-19.55-8-2.85-17.93-13.93-23.53-10.74-1.12-5.61-2.29-11.46-3.43-17.43-3.2-16.71-6.12-34.54-6.73-52.03-.44-12.75.25-25.21,4.29-36.33,1.12-3.07,2.76-5.63,4.5-8.01.35-.48.66-1,1.02-1.47,12.65-16.44,28.94-28.99,40.88-47.48,6.98-13.3,13.75-26.89,15.86-42.03,1.27-9.06,1.92-17.74,1.48-27.01-.36-7.61-.47-15.05-1-22.38-.5-6.9-1.38-13.69-3.3-20.4-.56-1.93-.76-3.57-1.94-5.16-5.92-8.1-6.53-5.83-14.09-11.87.01-7.21-5.86-13.13-13.1-13.13s-13.13,5.87-13.14,13.09c-7.03,5.62-8.45,2.6-13.63,10.28-6.54,9.73-10,20.81-13.86,31.99-1.83,5.3-3.73,10.61-6.12,15.83-3.48,7.63-7.86,14.43-13.07,20.72-10.95,16.28-26.38,26.55-37.75,41.15-7.84,10.03-14.46,21.31-19.24,34.69-.63,1.75-1.02,3.62-1.58,5.41-6.41,20.38-8.75,42.7-7.82,65.57.54,13.23,2.19,26.6,4.23,39.72,2.61,16.83,5.91,33.24,8.96,48.16,5.03,24.46,16.78,40.23,31.88,51.68,10.8,8.18,23.81,13.88,37.74,18.5,8.05,2.68,17.06,3.9,23.82,9.19,4.04,3.15,5.99,7.51,7.89,11.87,4.73,10.86,8.09,22.57,12.74,33.73,9.89,23.83,29.08,48.62,38.83,74.83,2.93,7.89,5.23,15.98,1.92,24.41-2.44,6.25-7.17,10.65-12.09,14.85-11.11,9.55-23.58,17.99-35.11,27.12-5.54,4.38-10.91,8.88-15.71,13.82-18.72,19.28-29.81,43.28-43.45,65.4-3.18,5.17-6.46,10.26-10.06,15.14-4.4,5.96-9.4,11.54-16.24,15.86-7.51,4.7-18.57,6.46-29.52,9.27-19.31,4.99-38.68,10.91-53.62,20.22-13.04,8.1-23.48,18.5-30.55,31.59-9.27,17.16-12.48,33.39-11.96,48.99.7,21.23,9.16,41.53,19.75,61.5,6.54,12.29,16.85,23.7,14.72,37.79-1.32,8.73-4.39,15.35-8.25,21.27-10.23,15.6-24.56,27.56-37.87,44.09-3.25,4.08-6.28,7.98-9.19,11.77h114.13c2.14-2.89,4.32-5.74,6.24-8.79,9.82-15.65,17.38-33.26,20.43-56.17,2.21-16.49.23-32.17-4.74-47.23-5.37-16.28-14.67-31.8-22.71-47.36-3.91-7.55-9.78-14.77-6.01-23.36,2.81,2.77,7.7-4.15,12.25-5.62,13.67-4.45,28.85-7.3,42.06-11.28,11.57-3.52,22.02-7.89,30.65-13.21,16.61-10.28,29.38-23.11,40.12-37.46.16-.21.29-.44.45-.65,16.57-22.37,25.72-49.92,45.98-70.49,5.55-5.63,11.93-10.61,18.47-15.46Z"/>
      <path class="cls-3" d="M982.46,1512.39c-6.57,1.43-13.15,3.54-19.75,5.93h89.97c-.93-.38-1.87-.82-2.79-1.17-23.3-8.89-45.29-9.59-67.42-4.76Z"/>
      <path class="cls-3" d="M714.74,1460.76c-2.06-1-4.21-1.86-6.5-2.47-19.8-5.34-40.19,6.4-45.53,26.19-3.95,12.11-6.87,23.24-8.87,33.84h77.53c.84-4.65,1.83-9.46,3.06-14.51,2.18-8.07,1.39-16.19-1.5-23.4-3.38-8.43-9.71-15.55-18.2-19.65Z"/>
      <path class="cls-5" d="M532.96,1507.61c-14.64-3-30-4.93-45.37-8-4.13-10.86-12.82-23.86-21.08-31.54-1.16-2.47-2.17-4.53-2.55-5.66-4.68-11.64-10.98-20.89-20.77-26.53-3.76-2.16-9.97-6.46-15.86-9.55l-.51-1.42c-4.81-10.84-7.27-18.85-13.13-23.32-.94-.72-1.96-1.59-3.02-2.57,3.11-6.12,5.65-13.05,7.41-17.29,4.21-10.11-.12-12.38.19-16.02,5.61-4.58,6.45-12.85,1.87-18.46-4.58-5.61-12.85-6.45-18.46-1.87-3.93-.46-6-4.28-17.32-.81-15.32,4.71-30.36,26.88-38.94,40.27-10.77,16.82-7.09,32.68-.58,44.37,1.29,3.12,2.92,6.5,4.74,9.66-2.6,5.5,2.32,20.76,3.5,27.72,1.9,11.26,8.71,19.3,15.92,26.24,2.59,2.51,7.35,3.79,12.49,4.76,1.66,5.21,4.11,10.85,5.23,14.4.75,2.38,1.87,4.22,2.82,6.33h181.2c-11.95-4.67-24.65-8.03-37.77-10.71ZM402.41,1508.18c-2.49,6.9-10.13-1.06-15.02-9.57,9.13,1.49,17.37,3.05,15.02,9.57Z"/>
      <path class="cls-2" d="M1097.13,1065.85c.6-1.73,1.37-3.44,2.05-5.17-8.25-13.65-18.21-24.43-29.34-33.43-17.97-14.51-40.19-22.44-59.44-37-16.32-12.29-30.84-28.4-48.57-38.3-12.29-6.88-25.69-11.58-40.84-13.09-15.9-1.59-33.09-.21-51.01,3.36-24.14,4.78-50.09,13.84-75.62,21.35-18.79,5.54-37.09,10.95-53.49,8.77-8.42-1.13-23.82-5.54-40.01-11.07-16.96-5.75-43.18-18.54-48.19-21.02-1.35-2.39-1.47-4.99-1.65-7.51-.87-12.33.48-25.17.04-38.26-.43-10.78-2.49-21.31-6.56-31.38-2.81-6.96-6.2-13.88-9.86-20.64-1.44-2.64-4.22-4.45-5.03-7.26-8-21.69,7.91-47.65,7.28-70.56-.21-7.76-2.29-8.31-4.8-13.22-.38-.74-.74-1.3-1.14-2.3,3.01-5.65,1.25-12.37-3.58-16.23-.62-.5-1.11-1.13-1.84-1.51-6.4-3.4-14.35-.96-17.75,5.45-7.87,1.72-8.5-1.22-16.07,3.27-1.69,1.01-3.05,2.51-4.54,3.79-9.75,8.38-16,21.75-23.7,33.75-14.46,22.61-19.5,47.95-19.36,72.32.26,6.46,1.98,12.63,3.72,18.96,2.57,9.31,9.87,17.58,9.61,27.14.11,23.83-2.98,46.98,3.11,68.67,3.77,13.42,10.32,26.43,21.06,38.93,8.17,9.52,26.05,21.94,49.01,32.17,33.46,14.98,78.56,28.1,97.71,30.66,16.18,2.14,33.45,1.3,51.31-1.76,25.02-4.28,51.6-13.21,77.44-21.06,19.39-5.87,38-11.96,54.36-10.32,4.4.46,7.41,3.57,10.65,6.12,10.58,8.43,20.31,18.5,31.01,26.59,16.81,12.67,35.8,20.55,52.47,31.75,4.79,3.23,9.42,6.8,12.73,12.42,2.96,4.45,4.52,9.48,4.99,14.81,1.1,12.25.69,24.79,1.05,36.37.25,23.95.1,47.19-2.13,70.14-2.64,27.06-8.76,53.27-15.67,80.25-1.02,3.99-2.62,7.84-2.64,12-.03,3.94,1.71,5.79,2.54,9.69-4.33,11.42-1.3,23.75,6.63,32.02,3.05,3.19,6.77,5.82,11.17,7.49,15.81,6,33.52-1.97,39.52-17.79.02-.02.04-.03.06-.04,3.53-2.6,5.8-3.63,8.61-6.96,1.4-1.68,2.04-3.82,2.91-5.79,8.76-20.01,13.34-40.98,18.16-61.58,8.8-37.72,13.41-75.95,16.14-116.12-3.69-4.7-7-9.63-9.6-15.05-13.08-27.27-12.62-56.13-2.94-83.85Z"/>
      <path class="cls-4" d="M1375.19,591.04c-2.45,2.07-4.74,4.38-6.61,7.18-8.57,1.68-8.62,4.36-15.46,9.31-4.65,3.4-5.44,9.48-7.63,14.77-7.22,17.39-5.29,38.23-.68,59.8.32,1.48.52,2.93.86,4.42,2.08,9.05,5.08,18.43,8.68,28.04,10.67,28.51,26.63,59.14,39.72,89.53,11.62,26.97,24.61,53.02,13.81,75.55-6.41,13.34-15.91,20.89-26.96,25.13-9.94,3.83-20.63,5.92-31.62,7.1-18.45,1.99-37.74,1.43-55.71,2.3-19.21.91-37.2,3.34-53.52,7.72-13.85,3.72-26.55,8.81-37.27,16.14-8.39,5.75-17.03,12.96-25.42,20.81-10.26,9.56-20.23,20.13-28.93,29.2-17.77,18.45-38.28,44.77-49.29,72.65-.68,1.72-1.45,3.43-2.05,5.17-9.67,27.73-10.13,56.59,2.94,83.85,2.6,5.42,5.9,10.35,9.6,15.05.65.83,1.2,1.71,1.89,2.52,5.01,5.92,16.21,16.28,18.55,18.42,6.33,12.96,9.81,26.05,16.53,38.21,4.62,8.39,10.25,16.49,17.61,24.16,12.99,13.55,24.63,19.09,34.55,28.82,1.77,1.72,3.14,4.03,4.48,7.51,1.34,3.44,1.9,6.75,2.05,10.07.99,21.14-3.67,41.74-.36,64.26,8.19,29.36,20.97,58.77,38.09,84.94,1.6,2.43,2.75,4.91,5.12,6.59,9.68,6.71,8.95,2.06,19.86,5.62,2.23,6.92,9.63,10.7,16.52,8.47,6.89-2.22,10.67-9.65,8.44-16.53,6.97-9.65,8.49-6.08,11.82-17.83.85-3.02-.14-5.87-.55-9.02-3.2-24.58-10.3-49.04-9.61-73.24-.93-9.53.01-18.56,1.19-27.44-15.93-16.27-27.53-36.13-35.54-60.53-3.67-11.22-7.63-23.08-9.74-36.7-.74-7.54,1.01-14.73,4.5-20.85-6.82-5.27-14.21-10.85-22.12-19.29l-18.53-41.15c-6.3-12.58-25.01-30.79-29.38-34.94-2.43-7.84,3.75-15.52,8.24-23.03,6.9-11.49,15.89-21.85,23.68-29.95l39.49-37.38c14.26-9.77,35.87-7.3,58.19-8.05,7.99-.26,16.07-.59,24.15-1.07,26.34-1.55,52.71-4.86,76.24-13.91,23.65-9.08,44.94-23.27,61.97-45.58,6.09-7.98,11.66-16.94,16.56-27.15,12.92-26.93,15.15-56.5,9.45-87.46-9.66-52.52-47.05-110.91-62.61-160.58-2.94-9.4-3.44-17.91-3.94-25.88-.32-4.99-9.54-4.11-9.17-9.27,10.84-16.23,6.49-38.17-9.72-48.99-.99-.66-2.05-1.09-3.08-1.64-12.9-6.91-28.44-5.04-39.3,4.15Z"/>
      <path class="cls-5" d="M314,921.54c-18.28-28.47-30.23-52.27-50.84-66.82-16.68-11.75-38.39-19.44-71.55-18.11-7.13.3-14.11,1.38-21,2.92-15.45,3.49-29.93,11.84-45.79,13.71-22.78,2.72-46.11,1.53-65.97,9.95-13.3,5.63-25.55,14.46-36.28,28.34-8.78,11.38-14.74,24.2-18.61,37.75-1.87,6.6-3.07,13.42-3.95,20.28v42.46l7.86,60.53c.56,5.44.49,11.81-.14,18.71-1.04,11.41-3.69,24.28-7.72,36.96v139.62c18.36-6.54,34.96-18.44,49.02-34.96,37.76-44.35,55.78-125.73,50.85-170.15l-9.66-65.33c-.2-5.7-.24-11.64.52-17.4.62-4.71,1.28-9.55,4.16-13.39l41.16-4.24,59.81-17c9.41-.55,15.35-.61,19.4,3.53,10.15,10.34,16.58,25.51,27.62,41.72,4.04,5.94,8.61,11.13,13.78,15.51,5.88,5.05,12.38,9.25,19.17,13.08,2.79,1.57,6.17,2.25,8.43,4.66,8.75,9.3,14.76,22.03,23.35,33.17,12.03,15.57,24.86,29.43,40.79,39.5,15.03,9.52,28.89,22.53,46.54,18.16,3.77-.94,3.3-1.06,6.58-3.27,6.92,2.18,14.27-1.71,16.43-8.62,2.16-6.9-1.71-14.29-8.63-16.43-1.65-3.22-.15-4.29-2.2-7.17-3.79-5.31-6.13-9.92-9.56-15.26-6.12-9.54-7.1-20.47-11.55-31.55-3.28-8.15-6.78-16.17-10.76-24.01-7.88-15.47-17.7-29.44-28.11-41.4-9.54-10.94-43.08-15.14-33.67-25.54.16-.2.34-.11.5.11Z"/>
      <path class="cls-8" d="M1283.73,171.11c.99,3.96,2.17,7.91,3.03,11.89,1.34-1.8,2.68-3.62,3.76-5.67,4.23-8.04,5.71-16.81,4.8-25.22l-13.58,7.17c-1.52,4.4,1.05,8.03,2,11.82Z"/>
      <path class="cls-8" d="M1151.32,131.28c3.73,5.88,7.73,11.59,12.26,16.94,10.56,12.47,23.27,23.36,36.71,32.82-1.04-4.63-1.86-9.33-2.36-14.12-1.11-10.66-.18-21.75,3.46-33.73,4.72-15.51,13.8-28.23,25.32-39.02,2.84-2.66,6.14-4.96,9.36-7.32-4.52-5.27-8.18-11.17-9.74-18.06-4.63-20.44-8.07-44.4-12.73-68.77h-96.28c5.63,22.76,8.68,46.44,12.22,67.82,1.26,7.63,2.57,15.03,4.13,21.88,3.41,15.1,9.6,28.9,17.65,41.57Z"/>
      <path class="cls-7" d="M1236.8,275.96c-2.99,2.56,8.72,3.66,0,0h0Z"/>
      <path class="cls-7" d="M1201.39,133.18c-3.65,11.99-4.58,23.08-3.46,33.73.5,4.8,1.32,9.5,2.36,14.12.97,4.32,2.14,8.59,3.5,12.79.95,2.94,3.29,5.38,3.52,8.55,2.91,10.53,3.39,20.58,7.97,30.46,2.82,6.09,5.62,8.68,8.71,14.6,2.98,5.7,4.06,11.87,6.48,17.77.48,1.17.92,2.34,1.54,3.48,1.23,2.27,1.16,5.83,3.62,6.78l1.1.46s.05.03.09.05c.63-.54,1.7-1.13,4.01-1.77,2.81,6.67,10.5,9.82,17.18,7.01,5.11-2.14,8.09-7.15,7.98-12.37-.03-1.61-.31-3.24-.97-4.81,3.15-3.52,3.01.42,4.49-4.02,2.11-6.34-.03-12.71,1.88-18.9,1.38-4.47,4.81-5.83,6.65-10.15,3.9-9.17,5.95-17.84,8.89-27.38.98-3.64.85-7.09.94-10.78.08-3.31-.42-6.55-1.11-9.77-.86-3.99-2.04-7.94-3.03-11.89-.95-3.79-3.52-7.42-2-11.82l13.58-7.17,31.3-16.52,33.07-22.04c29.72-11.09,67.25-14.46,103.84-20.29,18.74-2.99,37.2-6.66,54.8-11.42V0h-47.16c-18.45,4.23-37.68,7.44-56.71,10.64-19.03,3.21-37.66,6.58-55.13,10.89-11.03,2.72-21.73,5.73-31.45,9.59-7.35,2.94-14.23,6.7-20.71,11.18-7.61,5.25-14.25,12.14-22.27,16.63-14.4,8.14-33.26,16.51-48.82,27.91-3.22,2.36-6.51,4.66-9.36,7.32-11.52,10.79-20.6,23.51-25.32,39.02Z"/>
      <path class="cls-3" d="M115.49,180.85c6.27-.32,12.54-2.21,18.1-6.03,5.31,0,7.96.88,12.73-.59,1.51-.5,2.61-1.76,3.89-2.64,21.39-14.47,37.09-27.69,50.25-41.45,23.03-24.16,37.43-49.83,66.78-87.17,12.38-15.94,25.12-28.73,35.66-42.97h-114.13c-21.96,28.58-35.31,49.28-53.68,69.99-9.39,10.57-19.83,21.6-34.84,33.52-.99.8-2.24,1.34-3,2.39-2.62,3.61-1.84,6.38-3.54,10.78-16.05,11.03-20.14,32.97-9.14,49.04,2.74,3.99,6.16,7.23,10,9.7,6.24,4.01,13.58,5.82,20.92,5.44Z"/>
      <path class="cls-7" d="M117.47,0H0v81.83c27.06-7.32,52.07-17.28,72.66-31.82,18.26-12.9,33.6-29.19,44.81-50.01Z"/>
      <path class="cls-6" d="M1504.89,1375.29c-2.85,2.48,3.49,4.02,8.53,5.18-2.63-4.65-5.35-7.95-8.53-5.18Z"/>
      <path class="cls-6" d="M1464.87,1385c-5.62-1.38-11.52-2.62-17.46-3.86-3.33,1.52-6.64,3.09-9.86,4.89-18.99,10.65-36.5,24.25-51.1,44.05-5.91,8.43-11.57,17.16-15.32,27.27-4.15,11.12-7.41,22.61-10.53,33.31-1.95,10-2.97,18.87-3.06,27.67h63.43c.3-.42.52-.81.83-1.24,4.12-6.96,8.29-14.43,13.02-21.73,2.92-4.49,6.96-7.84,10.87-11.16,13.53-12.42,29.63-16.02,44.88-21.39,9.3-3.26,18.56-6.55,27.75-10.01v-63.3c-.14-.24-.29-.43-.43-.68-9.22,8.1-38.61.13-53.02-3.8Z"/>
      <path class="cls-7" d="M1518.32,1503.49c-.29.12-.55.28-.83.4-14.31,6.12-30,10.68-46.33,14.42h47.17v-14.83Z"/>
      <path class="cls-7" d="M1260.3,1259.77c8,24.4,19.6,44.26,35.54,60.53,5.3,5.41,11.08,10.43,17.36,15.09,18.31,13.57,40.76,22.73,64.15,29.88,23.08,7.06,47.47,11.18,70.07,15.88,5.94,1.23,11.84,2.47,17.46,3.86,14.41,3.94,43.79,11.9,53.02,3.8.14.25.29.44.43.68v-97.09c-1.25.05-2.5-.09-3.76.03-10.74,1.07-32.14-3.15-32.35,6.67-25.14-6.31-53.55-11.86-80.7-18.97-15.68-4.11-30.93-8.28-44.33-15.23-13.14-6.81-27.53-12.92-33.44-27.97-2.38-6.05-2.49-13.14-2.8-20.73-1.9-19.41-19.2-33.64-38.62-31.74-11.87,1.16-21.76,8.12-27.24,17.76-3.49,6.12-5.23,13.31-4.5,20.85,2.1,13.62,6.06,25.48,9.74,36.7ZM1504.89,1375.29c3.18-2.76,5.9.53,8.53,5.18-5.04-1.17-11.38-2.71-8.53-5.18Z"/>
      <path class="cls-5" d="M1304.97,1108.37c1.47,4.58,5.5,7.78,8.52,11.4,15.95,18.97,38.57,30.58,56.33,48.75,10.64,10.89,14.69,25.26,23.24,36.96,7.22,9.87,15.88,18.89,27.2,26.47,28.03,18.73,53.89,23.64,76.62,20.97,7.38-.87,14.52-2.64,21.43-5.1v-139.62c-3.49,10.96-7.97,21.78-13.47,31.31-5.29,9.17-9.77,18.95-18.64,19.94-4.14.46-8.17-2.36-13.26-5.81-3.94-2.66-5.57-6.78-7.68-10.46-4.3-7.51-8.31-15.22-13.12-22.5-4.22-6.42-8.96-12.51-14.51-18.23-16.83-17.33-35.15-30.68-53.4-46.47-1.85-1.59-4.22,1.16-6.38-.2-10.33-20.8-35.61-29.3-56.41-18.97-20.79,10.36-29.28,35.64-18.95,56.4-.53,6.14.68,9.58,2.48,15.16Z"/>
      <path class="cls-5" d="M1518.32,992.02v-42.49c-1.09,8.51-1.56,17.09-1.54,25.55,0,1.64-.06,3.3-.02,4.92l1.56,12.01Z"/>
    </g>
  </g>
  <g>
    <path class="cls-1" d="M1518.32,0h1518.32v1518.32h-1518.32V0Z"/>
    <g>
      <path class="cls-6" d="M1939.02,1121.62c-41.76-19.44-91.09-22.96-140.96-13.32-81.39,15.69-162.86,65.77-204.78,119.34-17.22,22.2-26.72,48.13-38.16,73.21,1.64.96,3.33,1.78,4.92,2.85,7.64,5.12,13.89,26.72,20.62,20.22.16-.15.17-.31.08-.46l-1.94-1.39c.51.38,1.69.89,1.94,1.39,15.75,11.46,29.17,17.1,39.09,24.78,4.33,3.35,8.15,7.05,11.72,10.98,12.42-24.28,19.35-51.2,36.55-73.02,25.31-32.34,71.33-61.87,119.93-77.39,31.08-9.93,63.59-14.64,91.83-7.96,13.64-22.13,24.73-46.12,43.45-65.4,4.79-4.94,10.17-9.44,15.71-13.82Z"/>
      <path class="cls-6" d="M2303.4,1400.4c-11.72-20.75-24.82-40.85-39.74-58.71-13.01-15.56-28.64-28.65-47.5-38.84-14.12-7.34-28.76-12-43.76-14.89-19.61-3.82-39.89-4.32-60.06-4.78-19.13-.46-38.36.38-55.39-8.6-11.62-6.17-17.29-18.37-23.18-30.45-10.3-21.12-18.65-43.89-29.36-62.9-6.54,4.85-12.91,9.83-18.47,15.46-20.26,20.57-29.41,48.12-45.98,70.49,8.91,20.13,18.58,40.09,31.52,56.53,11.21,14.22,24.63,26.18,41.02,34.86,14.19,7.51,28.99,12.25,44.26,15.14,19.4,3.65,39.62,4.11,59.88,4.61,19.04.42,38.36-.13,55.78,8.89,11.8,5.79,20.53,14.64,28.31,24.46,11.97,15.13,20.85,33.29,32.31,49.09,8.49,4.1,14.82,11.23,18.2,19.65,1.18.86,2.37,1.71,3.67,2.56,14.04,17.58,39.7,20.43,57.28,6.42,5.21-4.17,8.95-9.41,11.52-15.11-20.09-26.35-24.8-50.85-20.32-73.88Z"/>
      <path class="cls-6" d="M1561.71,1420.97c.19.53.04,1.09-.52,1.67-.47.5-1.8-1.42-1.13-1.74.73-.34,1.28-.3,1.64.07-.78-2.66-9.13-4.86-13.25-7.58-8.04-5.29-17.05-11.23-26.69-19.32-1.2-1.01-2.34-2.69-3.45-4.58v63.3c14.02-5.28,27.84-11.05,41.11-18.34.88-.48,1.69-1.13,2.57-1.62.65-5.7,1.1-10.69-.29-11.85Z"/>
      <path class="cls-2" d="M1526.18,1052.54l-7.86-60.53v82.95c1.66-.58,3.32-1.1,4.93-1.91,1.01-.51,1.85-1.21,2.79-1.8.63-6.9.7-13.27.14-18.71Z"/>
      <path class="cls-8" d="M1931.28,541.92c.01-7.21,5.9-13.09,13.14-13.09s13.11,5.91,13.1,13.13c7.57,6.04,8.18,3.78,14.09,11.87,1.18,1.59,1.38,3.23,1.94,5.16,1.91,6.71,2.79,13.51,3.3,20.4.31-.12.62-.21.94-.33,14.29-5.7,28.69-14.65,43.45-24.56-1.2-3.04-2.23-6.11-2.91-9.27-1.33-6.21-2.56-11.54-2.22-17.83.93-9.94,1.01-17.95,3.02-27.64,2.48-11.87,6-20.97,7.08-33.56-2.68-8.98,2.43-18.41,11.39-21.1,8.96-2.68,18.41,2.39,21.09,11.37l32.68,50.67c.78,1.21,2.01,1.87,3.24,2.56,10.39-3.87,21.39-5.77,33.43-3.37.75.15,1.5.66,2.26.49,4.66-1.05,1.75-3.93,5.76-6.8,20.85,6.25,42.85-5.6,49.1-26.46,6.25-20.85-5.6-42.85-26.45-49.1-2.35-6.12-1.38-5.99-6.28-10.05-1.56-1.29-3.92-.9-5.87-1.28-21.2-4.21-41.22-3.6-60.3.39-39.9,8.35-75.44,33.29-108.4,56.19-10.01,6.96-19.72,13.58-29.43,18.44-6.78,3.39-13.16,7.12-20.19,4.13,2.29.96,7.78,2.93,5.7,4.27-11.85,7.63-8.84-30.09-13.34-44.64-4.96-16.04-11.81-29.9-20.71-40.01-19.75-22.14-77.2-60.27-139.44-87.95-19.33-8.6-38.93-16.34-57.78-22.1-43.91-13.41-82.24-19.04-102.24-15.34-13.08,4.48-24.92,6.77-30.03,18.11-1.05,2.34-2.18,3.69-2.48,6.33-.72,6.37,1.37,7.47.84,14.31-5.42,4.81-5.91,13.11-1.1,18.52,4.81,5.42,13.11,5.91,18.53,1.1,9.6-.78,19.85-9.93,21.64-1.68.43,1.98-1.34,5.14-3.59,4.67,13.63.81,35.07,14.58,62.23,28.09,33.03,16.44,70.95,36.62,103.27,56.16,25.79,15.6,48.25,29.26,58.31,40.1-7.22,4.77,5.55,18.95,8.23,29.69,4.17,16.76,9.72,32.87,17.73,45.58,9.12,14.48,21.36,25.4,37.03,32.16,4.28,1.82,8.53,3.26,12.77,4.49,3.85-11.18,7.31-22.26,13.86-31.99,5.18-7.68,6.6-4.66,13.63-10.28Z"/>
      <path class="cls-2" d="M2933.35,993.44c-23.53,9.05-49.9,12.36-76.24,13.91,22.87,5.65,48.17,9.76,72.41,16.62,18.83,5.33,37.44,12.29,48.91,30.36.41.64.55,1.54,1.2,1.97,3.98,2.65,4.05-1.44,8.89-.52,9.06,17.79,29.77,25.59,48.11,19.17v-82.94l-1.56-12.01c-.03-1.63.03-3.28.02-4.92-5.83-5.5-11.91-10.59-18.38-15.04-6.78-4.66-13.99-8.59-21.4-12.18-17.03,22.32-38.32,36.5-61.97,45.58Z"/>
      <path class="cls-2" d="M2739.35,511.68c-2.42.86-4.17.97-6.3,2.58-5.1,3.88-4.45,6.15-9.77,10.48-7.22-.6-13.56,4.78-14.16,11.99-.6,7.22,4.77,13.56,11.99,14.16,7.2,6.4,20.89,7.5,16.16,14.5-1.13,1.68-4.64,2.58-5.86.62,8.82,10.42,13.67,35.43,22.64,64.41,10.91,35.24,22.49,76.61,30.67,113.48,6.52,29.43,12.15,55.11,11.25,69.86-8.44-1.93-9.88,17.1-15.8,26.45-9.25,14.59-17.07,29.72-20.73,44.29-3.17,12.6-3.58,25.08-1.02,37.37,16.32-4.39,34.31-6.82,53.52-7.72,17.97-.87,37.26-.31,55.71-2.3-.02,0-.04-.01-.06-.02-7.14-2.57-14.24-4.61-16.92-11.76.88,2.32,3.25,7.65.84,7.07-13.7-3.3,15.66-27.17,23.09-40.47,8.18-14.66,13.48-29.19,14.64-42.6,1.74-21.57-4.29-63.55-16.54-109.54-3.6-9.62-6.6-19-8.68-28.04-.34-1.49-.55-2.94-.86-4.42-2.1-6.54-4.23-13.09-6.56-19.59-7.12-19.92-15.05-39.44-23.9-57.06-7.81-15.55-15.88-29.73-23.79-42.02-11.92-9.74-22.53-21.71-32.07-35.22-1.88-2.66-3.62-5.52-5.44-8.27-11.43-6.08-20.88-12.19-32.03-8.25Z"/>
      <path class="cls-7" d="M1561.19,1422.63c.55-.58.7-1.14.52-1.67-.37-.37-.91-.41-1.64-.07-.68.31.66,2.23,1.13,1.74Z"/>
      <path class="cls-7" d="M1619.84,1348.23c-9.92-7.68-23.34-13.31-39.09-24.78.09.16.08.31-.08.46-6.73,6.5-12.98-15.11-20.62-20.22-1.59-1.07-3.29-1.89-4.92-2.85-4.97-2.9-10.09-5.4-15.76-6.65-7.02-1.54-14.02-2.1-21.05-1.8v97.09c1.11,1.9,2.25,3.57,3.45,4.58,9.64,8.09,18.65,14.03,26.69,19.32,4.12,2.71,12.47,4.91,13.25,7.58,1.39,1.17.94,6.16.29,11.85-.38,3.36-.81,6.91-1.03,10.24-2.1,33.03-19.28,50.2-42.65,60.44v14.82h117.47c10.12-18.78,16.9-41.22,19.06-68.58,2.59-32.89-1.82-53.56-8.65-68.44-3.93-8.58-8.86-15.72-14.64-22.08-3.57-3.93-7.39-7.63-11.72-10.98Z"/>
      <path class="cls-7" d="M1580.75,1323.45c-.25-.5-1.43-1.01-1.94-1.39l1.94,1.39Z"/>
      <path class="cls-8" d="M2706.22,1435.61c-13.84-26.3-33.26-48.49-60.57-63.89-21.33-11.98-42.51-16.78-63.5-16.53-.02.02-.04.03-.06.04-6,15.81-23.7,23.78-39.52,17.79-4.4-1.67-8.11-4.3-11.17-7.49-33.68,12.92-66.59,35.4-97.63,47.38-6.13,2.39-12.66,4.61-19.27,5.96-4.91,1.01-10.41,3.99-13.98-.29-.83-.96-1.78-2.43-2.43-3.48.7-1.34,1.83-3.48,2.74-4.78,4.13-6,9.48-11.7,15.05-17.45,19.94-20.6,41.54-41.49,52.66-62.92,6-11.54,9.66-23.45,10.78-35.57,1.25-13.55-.27-27.1-3.89-40.4-5.73-21.06-17.62-41.57-26.91-59.61-9.26-17.87-12.86-42.66-22.13-62.59-7.35-15.81-17.09-29.61-29.99-40.19-15.42-12.63-37.91-20.18-63.89-20.3-36.99-.21-82.2,14.14-104.23,26.34l-41.69,32.47c-24.85,14.18-47.87,18.29-70.15,33.68-2.03,1.38-4.82,1.97-6.05,4.19-7.11,12.79-3.65,9.19-3.72,25.04-6.04,4.03-7.69,12.16-3.7,18.21,4,6.04,12.14,7.68,18.18,3.69,12.96,5.45,6.26,10.15,19.13,11.75,1.45.17,2.79-.38,4.17-.71,13.75-3.1,26.05-1.01,39.48-2.22,11.49-1.01,22.83-3.98,35.15-7.26,6.99-2.56,13.38-5.91,19.41-9.77,12.38-7.84,21.33-20.18,34.44-27.18,9.98-5.37,28.29-10.99,45.9-13.21,5.99-.76,15.42-.21,19.09.04,2.32,3.02,3.31,7.09,4.76,10.95,7.59,20.43,12.47,43.29,21.38,60.61,5.16,10.03,11.68,20.89,16.54,32.26,2.17,5.08,4.6,10.15,4.11,15.48-.33,3.65-4.01,6.12-6.78,9.52-4.54,5.5-9.81,10.91-15.19,16.32-20.71,20.93-41.7,42.74-51.76,65.4-3.41,7.68-6.01,15.51-7.57,23.51-4.48,23.03.23,47.53,20.32,73.88,1.34,1.76,2.4,3.48,3.88,5.25,17.43,20.85,38.81,31.04,61.76,34.31,25.57,3.65,53.96-2.77,78.65-12.29,31.09-12.04,63.69-36.91,97.43-47.95,11-3.61,22.27-5.45,33.63.96,15.11,8.47,23.08,22.99,28.99,38.68,3.04,8.08,5.45,16.52,7.57,25.07h96.28c-5.47-28.64-12.64-57.84-25.69-82.7Z"/>
      <path class="cls-4" d="M2774.6,356.55c-2.01.59-4.07.96-6.17,1.26,1.89-.25,6.12.04,6.17-1.26Z"/>
      <path class="cls-4" d="M2483.74,678.16c-3.89-2.2-15.68,1.48-21.84.18-5.19-1.1-10.28-2.67-15.34-4.8-11.67-4.94-24.31-9.83-36.76-11.83-3.99-.64-8.09-1.22-11.81-.49l2.96,7.79c6.41,17.62,15.06,36.74,22.34,56.01,9.89-9.57,19.63-19.86,30.22-26.75,9.82-6.37,20.01-13.13,30.23-20.1Z"/>
      <path class="cls-4" d="M2149.28,749.14c.4,1,.76,1.56,1.14,2.3,5.21,2.58,10.82,4.86,17.63,6.3,7.05,1.47,14.22,2.35,21.46,2.77,17.51.96,35.66-2.64,52.28.42,25.3,4.66,54.64,8.52,82.96,6.54,4.15-.29,8.25-.83,12.35-1.37-.58-1.7-1.05-3.38-1.67-5.08-7.46-20.48-16.99-40.9-23.78-59.6-3.04-8.39-6.58-17.78-9.16-27.32-15.27-.49-30.41-2.76-43.99-5.21l-19.46-.67c-2.67,4.04-5.46,7.97-8.52,11.75-10.75,13.31-23.94,25.37-42.95,35.77-12.68,6.92-26.42,12.28-40.73,16.85-.37.12-.77.21-1.14.33,4.84,3.86,6.6,10.58,3.58,16.23Z"/>
      <path class="cls-4" d="M2776.31,281.19c-6.67,2.81-14.37-.33-17.18-7.01-2.32.65-3.38,1.23-4.01,1.77,8.72,3.66-2.99,2.56,0,0-.05-.02-.05-.03-.09-.05l-1.1-.46c-2.45-.95-2.38-4.51-3.62-6.78-.62-1.14-1.06-2.31-1.54-3.48-5.38,1.28-10.62,2.93-15.62,5.33-7.84,3.78-21.77,13.76-24.96,16.11-24.2,6.42-53.48,2.18-78.74,8.64-19.34,4.99-37.12,13.88-52.4,29.11-22.48,22.36-35.14,46.31-42.66,71.02-6.53,21.44-8.88,43.46-10.71,65.44-1.79,21.48-1.89,43.12-12.77,62.67-8.46,15.14-20.26,28.4-33.35,40.44-5.2,4.79-10.65,9.33-16.18,13.78,6.96,2.39,13.82,4.99,20.45,7.77.31-.31,1.27.52,1.84.76l-1.84-.76-.06.14c-2.53,11.55,23.34,2.17,34.09,6.17,15.77,5.91,28.78,15.68,39.21,28.44,14.95-15.45,28.12-32.27,38.41-50.69,2.01-3.59,3.42-7.3,5.1-10.96-1.6-3.22-3.24-6.43-4.5-9.8-7.88-21.1-10.18-45.34.58-75.88,5.72-19.21,15.04-32.59,25.47-44.17,1.41-1.56,3.03-2.88,4.53-4.33.13-.45.19-.92.33-1.37,3.36-10.91,8.93-21.52,18.88-31.42,4.32-4.28,10.11-4.91,15.77-5.75,9.16-1.32,18.59-1.9,28.01-2.44,20.9-9.21,39.2-11.53,55.49-9.62,12.17-8.74,25-28.1,31.27-17.72.13.17.17.34.17.46,22.65-6.08,37.84-28.23,34.65-52.1-2.12-15.81-11.86-28.69-24.96-35.63.11,5.22-2.87,10.23-7.98,12.37Z"/>
      <path class="cls-4" d="M2058.7,456.47c-2.68-8.98-12.13-14.05-21.09-11.37-8.96,2.68-14.07,12.12-11.39,21.1-1.09,12.58-4.6,21.69-7.08,33.56-2.01,9.69-2.09,17.7-3.02,27.64-.34,6.29.9,11.62,2.22,17.83.67,3.16,1.71,6.23,2.91,9.27,3.71,9.43,9.08,18.48,11,28.44,3.27,12.21,2.17,26.05,5.06,38.34,1.55,6.59,3.73,12.92,6.63,18.92,3.41,7.08,7.2,13.59,11.21,19.8,20.59-6.7,42.43-11.51,63.05-18.02,8.36-2.68,16.46-5.6,23.86-9.65,2.43-1.33,4.35-2.8,6.28-4.27-.13-.13-.27-.24-.4-.37-7.84-7.93-14.96-16.7-20.39-27.9l-5.83-41.07c-2.52-8.26-5.47-16.4-9.72-23.95-4.52-8.05-9.58-15.73-14.82-23.11-.66-.93-1.62-1.45-2.57-1.97-1.23-.68-2.46-1.35-3.24-2.56l-32.68-50.67Z"/>
      <path class="cls-9" d="M1896.87,214.07c-8.5-8.14-3.23-8.68-2-8.9-.01-.07-.03-.14-.04-.21-.71-.2-2.84-.65-7.68-1.87-2.01-.5-3.9.29-5.83.67-10.65,2.1-19.46-4.03-29.83-5.79-20.6-3.52-41.95-8.26-62.84-12.54-10.4-1.8-21.14-2.18-32.13-1.59-25.59,1.43-53.02,12-77.47,8.77l-45.26-11.76c-7.34.38-14.68-1.43-20.92-5.44l-34.51-8.97c-14.28-2.52-36.49-8.56-60.05-13.5v96.24c17.24,3.97,32.88,8.03,43.73,9.92,26.98,4.74,52.5,15.56,79.22,21.85,8.45,2.01,17,3.65,25.68,4.78,10.15,1.3,20.63,1.38,31.31.55,24.83-1.93,51.26-12.5,74.62-8.52,28.31,3.48,57.59,12.33,85.03,8.14,18.46-2.81,39-5.12,52.63-17.67-.27-4.61-.51-9.03-.74-12.95-.78-14.82-9.2-27.38-12.94-41.21Z"/>
      <path class="cls-9" d="M1676.18,727.22c-7.08-1.63-12.94-.5-19.69-.17-9.26.42-11.06-2.59-20.25-4.58-6.27,3.62-14.31,1.47-17.92-4.83-3.61-6.3-1.46-14.29,4.81-17.91,2.75-8.59,1.75-11.19,6.13-18.9,1.35-2.39,3.4-3.66,5.4-5.44,11.9-10.76,27.13-14.09,44.32-16.45,9.82-1.32,34.4,2.2,62.05,8.54,6.31,1.44,12.63,3.22,18.88,5.13,10.71-12.39,20.29-25.39,27.24-39.81,14.43-29.82,20.39-64.93,7.51-110.24-5.66-20.05-16.49-35.19-30.5-47.11-19.51-16.61-48.2-24.41-69.72-35.49-12.84-6.63-21.06-16.95-32.65-23.83-9.12-5.45-19.25-9.86-31.34-12.5-32.2-7.09-60.23-3.69-87.33.5-8.33,1.3-16.5,2.9-24.81,3.5v77.81c8.66,3.26,17.45,7.91,26.05,14.52,20.47-2.98,41.18-9,65.72-3.59l40.82,27.98,52.39,24.12c4.99,17.66,3.94,31.42-1.68,43.04-16.91,35.03-55.05,57.68-78.42,89.35-9.08,12.29-17.95,25.04-22.08,39.85-1.47,5.29-3.72,10.45-3.06,15.98.79,6.71.85,10.49,3.73,16.86-3.09,20.64,11.16,39.89,31.8,43,20.63,3.06,39.9-11.2,42.98-31.84,2.32-2.39,5.12-1.17,7.1-3.73,1.63-2.1,3.75-3.57,4.97-5.87,2.71-5.09,5.65-9.96,8.89-14.64-5.57-3.28-10.81-6.34-15.45-8.63-3.03-1.5-4.33-4.24-5.91-4.64Z"/>
      <path class="cls-6" d="M1518.32,611.53c15.28,11.59,36.81,12.65,53.18.86,20.1-14.47,24.69-42.49,10.24-62.59-1.25-3.65-2.28-6.75-4.03-9.9-10.15-18.15-21.57-30.86-33.35-39.92-8.6-6.61-17.38-11.26-26.05-14.52v126.07Z"/>
      <path class="cls-9" d="M2997.95,477.66c11.66.84,25,2.66,38.68,7.81v-77.81c-7.82.56-15.75.24-24.07-2.24-15.86-4.7-32.09-17.07-52.28-40.35-2.78-3.19-2.77-9.27-3.85-15.86-2.51-15.39-2.77-33.73-1.15-51.72,1.6-17.7,4.92-35.11,10.41-48.83,1.19-2.98,3.45-7.01,4.71-9.14,10.12-2.77,24.67,1.34,39.21,3.98,9.17,1.68,18.28,3.67,27.01,5.68v-96.24c-14.42-3.02-29.35-5.63-43.29-6.76-25.96-2.1-49.42,1.05-66.5,9.1-27.52,13.05-53.66,55.62-62.66,108.98-6,35.57-6.12,75.09-.41,105.5,4.7,25.04,14,45.01,24.8,57.47,23.4,27.01,44.94,44.3,64.95,55.52,15.08-3.85,29.68-6.13,44.42-5.09Z"/>
      <path class="cls-6" d="M2477.83,855.82c-3.25,1.93-2.1,1.51-.01.33,3.91-2.56,6.34-4.07.01-.33Z"/>
      <path class="cls-6" d="M2444.06,880.31h0c-2.07-.28-12.2,10.7,0,0Z"/>
      <path class="cls-6" d="M2687.68,383.43c-5.73,2.53-11.63,5.51-17.76,9.11-17.8,10.99-32.96,19.96-45.23,31.87-1.5,1.45-3.13,2.78-4.53,4.33-10.43,11.58-19.75,24.96-25.47,44.17-10.77,30.54-8.46,54.78-.58,75.88,1.26,3.37,2.9,6.58,4.5,9.8,7.42,14.99,18.09,28.58,30.55,41.63,12.62,13.26,27.78,25.59,36.09,42.53,12.96,24.33,17.61,46.65,16.72,69.42-1.03,26.59-8.42,53.48-16.26,83.73-1.68,5.83-7.32,13-12.76,20.05-4.53,5.87-9.41,11.45-13.7,14.55-1.2-3.31-8.26,1.85-13.99,2.73-.91.14-1.98.21-2.92.34-.04.07-.03.14-.07.21-5.52,8.75-3.46,2.37-11.42,8.73,1.33,7.1-3.35,13.98-10.46,15.33-7.11,1.35-13.97-3.32-15.34-10.45-9.9-3.04-6.09,2.49-13.86-4.58-1.81-1.65-3.37-3.48-4.79-5.4-17.34,1.17-34.84,2.54-50.5,3.67-12,.84-22.02,3.73-30.42,3.31-1.9-.08-5.01,2.14-4.95.63.13-2.89-1.71,6.71.3,6.38,6.34-1.09.42,2.81-2.98,4.74l-2.53,1.64-3.32,2.22c-5.27-6.75-14.95-8.43-22.21-3.61-7.64,5.07-9.73,15.35-4.68,22.99l-1.02.92c.89.12.32,2.29-4.22,9.23-2.06,3.15,1.14.21.51,4.15-.72,4.49,3.28,4.32,6.18,8.93,8.06,12.75,36.8,18.96,69.27,24.66,14.58,2.52,30.62,3.57,46.73,3.4,53.05-.71,105.1-14.81,119.83-24.33,11.52-7.42,26.96-22.65,39.2-40.56,11.63-17.03,21.01-35.74,24.09-49.5,11.4-44.84,20.02-83.94,18.18-123.28-1.34-28.73-8-57.68-23.49-88.89-8.18-15.31-19.08-28.73-31.29-40.9-12.68-12.63-27.35-23.2-36.61-36.66-4.82-6.96-6.25-15.27-2.21-26.68,2.87-6.88,7.4-10.53,12.09-13.89,8.48-6.08,18.83-9.77,30.32-15.27,9.19-4.61,15.28-7.05,20.42-3.94,7.07,4.28,11.73,12.29,17.11,20.34,7.09,10.58,14,21.89,21.2,32.8,1.82,2.75,3.56,5.61,5.44,8.27,9.54,13.51,20.15,25.49,32.07,35.22,12.98,10.61,27.52,18.55,44.08,22.62,14.54,3.54,27.95,4.93,40.55,4.99,10.86-9.2,26.4-11.07,39.3-4.15,2.91-.62,5.79-1.26,8.61-1.97,18.55-4.66,33.72-13.59,49.83-12.46,9.74.67,15.03,11.37,29.41,25.34,1.9,1.84,4.3,2.64,6.54,4.36,2.68,3.73,5.94,6.73,9.42,9.37v-126.07c-13.68-5.15-27.02-6.97-38.68-7.81-14.74-1.04-29.34,1.24-44.42,5.09-3.85.98-7.72,2.01-11.64,3.17-18.39,5.5-38.72,14.56-66.52,7.8-6.02-1.43-10.01-6.25-14.14-11.03-8.65-10.11-15.93-22.32-23.45-33.98-16.94-26.34-35.3-50.38-58.16-62.92-10.94-6-23.03-10.39-36.47-11.97-16.29-1.91-34.59.41-55.49,9.62Z"/>
      <path class="cls-6" d="M2939.29,0h-63.44c-.07,6.99.62,14.08,1.78,21.53,17.47-4.31,36.1-7.68,55.13-10.89,1.83-3.51,3.97-7,6.53-10.64Z"/>
      <path class="cls-7" d="M1826.03,701.99l-7.06-4.27c-8.06-4.57-26.03-13.9-47.27-21.34-3.84-1.34-7.81-2.56-11.78-3.77-6.25-1.9-12.56-3.68-18.88-5.13-27.65-6.34-52.24-9.85-62.05-8.54-17.2,2.36-32.42,5.68-44.32,16.45-2,1.78-4.05,3.05-5.4,5.44-4.38,7.71-3.38,10.32-6.13,18.9-6.27,3.62-8.43,11.61-4.81,17.91,3.61,6.29,11.65,8.45,17.92,4.83,9.19,1.98,10.99,5,20.25,4.58,6.75-.33,12.61-1.46,19.69.17,1.58.4,2.88,3.14,5.91,4.64,4.64,2.29,9.88,5.35,15.45,8.63,4.12,2.42,8.35,4.93,12.99,7.45,8.44,4.58,17.07,9.37,25.6,13.54,15.19,7.44,29.18,13.26,35.12,16.89,11.28,6.87,21.87,15.62,33.66,21.8,5.59,2.93,11.48,5.19,17.53,7.11-2.04-13.12-3.69-26.49-4.23-39.72-.93-22.87,1.41-45.18,7.82-65.57Z"/>
      <path class="cls-7" d="M2118.19,641.99c-20.62,6.51-42.46,11.32-63.05,18.02-6.53,2.12-12.96,4.42-19.16,7.04-50.82,21.47-78.37,44.02-115.54,52.44-.58.13-1.24.16-1.82.29-1.74,2.39-3.38,4.94-4.5,8.01-4.04,11.12-4.74,23.57-4.29,36.33.61,17.49,3.54,35.32,6.73,52.03,8.73-.87,17-2.2,24.91-4,42.07-9.53,74-33.3,131.48-57.57,10.33-4.37,21.36-7.64,32.55-10.67,1.5-1.29,2.85-2.78,4.54-3.79,7.56-4.49,8.19-1.55,16.07-3.27,3.4-6.42,11.35-8.85,17.75-5.45.73.39,1.21,1.01,1.84,1.51.38-.12.77-.21,1.14-.33,14.31-4.56,28.05-9.93,40.73-16.85,19.01-10.4,32.2-22.46,42.95-35.77,3.06-3.78,5.85-7.71,8.52-11.75,7.87-11.92,14.69-24.91,24.13-38.63,10.5-15.21,23.88-27.28,34.53-41.83,6.71-9.15,12.63-19.01,17.33-30.11,8.32-19.6,10.71-36.76,9.78-53.13-1.14-20.14-8.2-39.27-17.63-62.19-6.86-16.73-17.67-43.41-30.27-64.29-8.37-13.82-17.82-25.42-27.17-33.23-19.63-16.36-40.75-26.15-62.89-31.64-29.64-7.43-61.33-6.52-93.08-4.85-28.8,1.55-58.04,6.13-83.01-8.72-.91-6.32-5.38-37.5-6.1-49.86-.44-7.61-1.61-14.99-3.47-22.17-3.95-15.3-13.54-28.78-15.17-44.59-1.08-8.29.8-18.15,4.31-27.91,5.19-14.43,13.68-28.04,21.24-39.74,2.16-3.33,1.83-7.13,3.82-10.1,8.87-7.1,13.37-17.52,13.48-28.07-23.36-7.01-48.54-12.05-72.77-21.7-.68.44-1.3.75-2.01,1.23-16.13,10.9-27.91,30.93-38.81,50.06-15.82,27.75-23.34,58.95-22.22,84.37.21,4.7.91,9.29,1.77,13.84.01.07.03.14.04.21.49,2.57.97,5.15,1.6,7.7.1.41.29.79.4,1.2,3.74,13.82,12.15,26.39,12.94,41.21.23,3.92.47,8.34.74,12.95,1.16,19.47,3.2,43.83,10.36,63.29,7.01,19.13,18.36,34.61,33.52,44.8,20.35,13.75,42.08,21.38,64.74,25.17,28.73,4.76,59.16,2.69,89.34,1.25,28.3-1.41,56.92-4.47,80.37,15.07,5.33,4.43,9.24,13.35,13.56,22,6.91,13.9,12.68,28.52,16.85,38.63,4.39,10.65,8.73,19.59,10.34,28.82.72,4.13.06,8.28-2.07,13.31-2.52,5.95-6.18,10.84-9.99,15.54-10.67,13.19-22.71,25.21-32.62,39.57-11.14,16.18-17.7,31.45-28.34,44.6-2.27,2.81-5.09,5.37-8.27,7.8-1.93,1.47-3.86,2.95-6.28,4.27-7.41,4.04-15.5,6.97-23.86,9.65Z"/>
      <path class="cls-3" d="M2484.69,492.15c1.14,1.46,1.08-.6,0,0h0Z"/>
      <path class="cls-3" d="M2351.73,113.36c2.01.55,4.5.26,5.78,1.74,5.51,6.36,6.26,2.51,6.84,10.17,4.05,2,7.5,4.72,10.31,7.92,32.93-8.53,62.52-25.26,89.9-42.3,18.62-11.58,35.55-23.72,53.51-28.81,8.58-2.43,17.4-3.93,26.62-.54,12.03,4.43,23.61,14.74,36.62,30.4-12.38,4.21,5.52,32.61,12.07,43.84,6.62,11.37,8.99,23.47,8.69,34.67-.18,6.67.07,13.51-3.47,18.9-3.33,5.08-9.25,8.19-15.83,10.3-3.29,1.06-6.75.3-10.47-.34.08-.1.13-.23.16-.39,1.79-9.4-19.82-6.65-28.64-9.45-14.13-4.49-27.03-5.01-37.78-2.53-8.34.99-16.44-.77-24.75-.25-23.37,1.46-46.72,4.64-70.39,7.24-17.15,1.88-34.23,4.22-51.1,9.11-10.99,2.76-24.59,10.42-37.19,22.78-10.21,10.01-19.77,23.7-28.82,34.42-4.83,5.71-9.33,10.31-12.76,14.24-12.33,21.88-13.92,45.42-5.09,69.8,16.52,45.56,83.48,97.35,99.55,119.89,1.37,2.15,5.04,16.01,12.12,28.56,4.53,8.03,10.38,14.91,14.88,20.95,15.32,20.5,30.9,29.62,33.12,29.66,11.47.37,25.88-3.04,25.88-3.04,0,0-4.54-.24-5.24-2.87-.9-3.4-1.65-4.83-2.08-5.42.04.03.03.05.08.08.96.49,3.46.6,8.43-3.89,7.95,5.1,18.55,2.78,23.64-5.18,5.09-7.95,2.77-18.55-5.18-23.64,1.59-5.08,2.79-6.81,3.54-7.24,0,0,.01,0,.02,0-.54-.69-1.32-2.09-2.43-5.07-2.58-6.9-9.33-9.26-16.27-9.65-1.03-4.71-2.28-9.95-4.29-15.2-7.66-20-20.21-39.1-22.45-42.17-9.92-14.31-41.6-39.88-66.15-68.84-6.51-7.68-11.96-15.91-16.22-23.86-2.28-4.26-7.77-12.33-3.81-12.4.37,0,.47.3.42.73,1.52-3.96,3.16-8.99,6.23-13.9,5.48-8.78,23.51-15.43,22.03-22.44,37.39-4.87,74.8,5.69,110.91,0,8.89-1.4,17.33-3.96,25.65-7.19,3.82,5.87,21.73,6.35,30.56,9.21,11.62,3.76,23.03,4.19,33.37,2.79,11.83-5.02,21.83-9.48,31.3-15.42,26.88-16.86,46.78-36.35,55.63-62.48,7.74-22.88,8.25-49.06.47-74.99-8.04-12.68-14.24-26.47-17.65-41.57-1.55-6.86-2.87-14.26-4.13-21.88-2.37-6.23-5.18-11.84-8.85-16.04-24.33-27.9-47.07-43.25-68.01-51.78h-89.97c-13.05,4.73-26.15,11.02-39.27,18.64-30.35,17.62-60.69,43.25-99.18,49.32-41.9,5.22-71.71,5.72-88.38-8.18-6.51-5.43-7.22-14.32-7.49-25.37-.25-10.03.65-21.5,2.97-34.42h-77.53c-.38,2.02-.98,4.17-1.28,6.14-8.02,54.11,8.32,90.26,36.5,112.01,9.5,7.33,21.4,13.03,35.36,17.16,19.36-10.19,44.17-19.52,66.86-22.89,15.92-2.37,30.81-2.16,42.11.94ZM2448.81,478.58l1.33.43c-2.09.46-3.38.86-3.38.86,0,0,1.15-1.64,2.05-1.29Z"/>
      <path class="cls-5" d="M2040.41,80.71c7.26,2.53,13.76,6.18,20.2,9.98,7.34,4.33,15.38,8.33,20.88,17.33,6.98,13.15.19,29.33-3.39,44.93-5.33,23.2-10.01,45.83-6.94,65.4,4.5,28.72,19.82,54.77,62.35,69.44,28.26,8.14,49.08,6.08,66.28-1.8,16.82-7.7,30.75-20.45,42.74-37,9.19-12.69,17.29-27.93,28.3-39.24,3.43-3.49,12.06-5.6,21.08-8.73,14.19-4.92,40.03-19.09,42.02-7.81.55,3.1,2.97-5.78,1.53-7.55,16.42,7.66,36.07.81,44.12-15.54,6.17-12.53,3.77-27.04-4.92-36.93-2.81-3.2-6.26-5.92-10.31-7.92-.58-7.66-1.33-3.82-6.84-10.17-1.29-1.48-3.78-1.2-5.78-1.74-11.29-3.1-26.18-3.31-42.11-.94-22.7,3.37-47.5,12.7-66.86,22.89-13.2,6.95-23.94,14.29-29.48,20.48-9.92,10.99-18.19,24.25-26.15,37.26-4.79,7.83-8.65,16.14-15.03,21.04-2.72,2.09-5.52-1.77-10.38-3.89-8.54-3.17-8.02-9.59-7.13-16.12.69-5.09,1.57-10.37,2.72-15.71,5.7-26.28,11.4-53.79,8.87-78.54-1.08-10.55-3.91-20.55-7.99-30.53-11.11-27.3-27.9-45.86-47.88-58.81-6.64-4.3-13.83-7.6-21.25-10.5h-181.2c2.8,6.19,6.1,11.58,9.82,15.32,6.34,14.99,23.73,35.08,38.23,40.08.07.03.14.05.21.07,24.23,9.65,49.41,14.69,72.77,21.7,3.86,1.16,7.79,2.24,11.53,3.54Z"/>
      <path class="cls-9" d="M2386.62,566.83c-28.28,3.45-54.35,16.34-74.61,45.1-9.08,12.94-12.81,26.67-12.88,40.78-.04,6.99,1.42,14.23,3.36,21.39,2.58,9.54,6.12,18.93,9.16,27.32,6.78,18.7,16.32,39.12,23.78,59.6.62,1.7,1.08,3.38,1.67,5.08,2.99,8.69,5.59,17.35,6.64,25.78.42,3.38-3.04,4.18-5.37,5.73-2.84,1.87-5.89,3.56-9.01,5.18-16.98,8.81-35.5,16.13-49.38,25.07-15.74,10.14-26.57,20.39-41.25,30.88-1.14.83.09,2.78-1.03,3.8-23.34,7.2-36.46,32-29.27,55.32,7.21,23.39,31.98,36.5,55.36,29.33,2.96,1.18,4.2.95,7.31.9,5.42-.09,9.79-4.03,14.27-6.43,16.97-9.03,28.52-22.67,46.03-33.91,12.47-8.02,29.54-14.06,44.6-22.13,17.12-9.18,32.25-20.41,43.07-34.27,14.33-18.37,22.71-41.08,18.97-71.18-1.63-13.07-4.93-26.5-9.31-39.98-1.64-5.05-3.52-10.12-5.43-15.18-7.27-19.27-15.92-38.39-22.34-56.01l-2.96-7.79c3.72-.74,7.83-.15,11.81.49,12.45,2,25.09,6.9,36.76,11.83,5.06,2.14,10.16,3.71,15.34,4.8,6.16,1.3,17.95-2.38,21.84-.18.99.56,1.61,1.41,1.32,2.94-.13.57-1.11-.34-1.69-.55-.5-.18-1.04-1.22-1.35-.8-5.49,7.72,8.89,17.36,11.9,27.56,4.91,16.7,8.9,32.96,13.89,44.54,4.16,7.9,8.41,15.67,14.4,22.44,7.3,8.26,17.08,14.24,23.18,23.37,9.72,11.69,12.18,27.89,20.99,39.77,1.42,1.92,2.98,3.75,4.79,5.4,7.77,7.08,3.96,1.55,13.86,4.58,1.37,7.12,8.23,11.8,15.34,10.45,7.11-1.35,11.79-8.22,10.46-15.33,7.95-6.37,5.9.01,11.42-8.73.04-.07.03-.14.07-.21,1.26-2.13,1.14-4.33,1.53-6.84,1.92-12.54,1.92-24.32.89-36.98-.82-9.84-4.48-18.86-7.65-28.06l-23.81-45.93c-8.49-20.54-13.65-56.31-28.32-81.32-2.98-5.08-6.28-9.81-9.87-14.21-10.43-12.77-23.44-22.54-39.21-28.44-10.75-4-36.62,5.37-34.09-6.17l.06-.14c-6.63-2.79-13.49-5.39-20.45-7.77-24.72-8.48-50.95-13.77-74.77-10.89Z"/>
      <path class="cls-9" d="M2481.84,585.5l1.84.76c-.57-.24-1.53-1.07-1.84-.76Z"/>
      <path class="cls-3" d="M2004.41,1181.22c12.63-9.37,26.1-18.12,37.03-29,11.41-11.33,20.73-24.41,26.99-40.02,9.33-23.32,9.84-46.06,4.98-68.21-7.51-34.27-32.63-66.99-45.03-97.61-7.48-18.46-12.63-37.84-22.79-54.36-6.41-10.4-14.46-19.88-24.84-28.15-11.05-8.77-23.89-14.77-37.22-19.55-8-2.85-17.93-13.93-23.53-10.74-1.12-5.61-2.29-11.46-3.43-17.43-3.2-16.71-6.12-34.54-6.73-52.03-.44-12.75.25-25.21,4.29-36.33,1.12-3.07,2.76-5.63,4.5-8.01.35-.48.66-1,1.02-1.47,12.65-16.44,28.94-28.99,40.88-47.48,6.98-13.3,13.75-26.89,15.86-42.03,1.27-9.06,1.92-17.74,1.48-27.01-.36-7.61-.47-15.05-1-22.38-.5-6.9-1.38-13.69-3.3-20.4-.56-1.93-.76-3.57-1.94-5.16-5.92-8.1-6.53-5.83-14.09-11.87.01-7.21-5.86-13.13-13.1-13.13s-13.13,5.87-13.14,13.09c-7.03,5.62-8.45,2.6-13.63,10.28-6.54,9.73-10,20.81-13.86,31.99-1.83,5.3-3.73,10.61-6.12,15.83-3.48,7.63-7.86,14.43-13.07,20.72-10.95,16.28-26.38,26.55-37.75,41.15-7.84,10.03-14.46,21.31-19.24,34.69-.63,1.75-1.02,3.62-1.58,5.41-6.41,20.38-8.75,42.7-7.82,65.57.54,13.23,2.19,26.6,4.23,39.72,2.61,16.83,5.91,33.24,8.96,48.16,5.03,24.46,16.78,40.23,31.88,51.68,10.8,8.18,23.81,13.88,37.74,18.5,8.05,2.68,17.06,3.9,23.82,9.19,4.04,3.15,5.99,7.51,7.89,11.87,4.73,10.86,8.09,22.57,12.74,33.73,9.89,23.83,29.08,48.62,38.83,74.83,2.93,7.89,5.23,15.98,1.92,24.41-2.44,6.25-7.17,10.65-12.09,14.85-11.11,9.55-23.58,17.99-35.11,27.12-5.54,4.38-10.91,8.88-15.71,13.82-18.72,19.28-29.81,43.28-43.45,65.4-3.18,5.17-6.46,10.26-10.06,15.14-4.4,5.96-9.4,11.54-16.24,15.86-7.51,4.7-18.57,6.46-29.52,9.27-19.31,4.99-38.68,10.91-53.62,20.22-13.04,8.1-23.48,18.5-30.55,31.59-9.27,17.16-12.48,33.39-11.96,48.99.7,21.23,9.16,41.53,19.75,61.5,6.54,12.29,16.85,23.7,14.72,37.79-1.32,8.73-4.39,15.35-8.25,21.27-10.23,15.6-24.56,27.56-37.87,44.09-3.25,4.08-6.28,7.98-9.19,11.77h114.13c2.14-2.89,4.32-5.74,6.24-8.79,9.82-15.65,17.38-33.26,20.43-56.17,2.21-16.49.23-32.17-4.74-47.23-5.37-16.28-14.67-31.8-22.71-47.36-3.91-7.55-9.78-14.77-6.01-23.36,2.81,2.77,7.7-4.15,12.25-5.62,13.67-4.45,28.85-7.3,42.06-11.28,11.57-3.52,22.02-7.89,30.65-13.21,16.61-10.28,29.38-23.11,40.12-37.46.16-.21.29-.44.45-.65,16.57-22.37,25.72-49.92,45.98-70.49,5.55-5.63,11.93-10.61,18.47-15.46Z"/>
      <path class="cls-3" d="M2500.78,1512.39c-6.57,1.43-13.15,3.54-19.75,5.93h89.97c-.93-.38-1.87-.82-2.79-1.17-23.3-8.89-45.29-9.59-67.42-4.76Z"/>
      <path class="cls-3" d="M2233.06,1460.76c-2.06-1-4.21-1.86-6.5-2.47-19.8-5.34-40.19,6.4-45.53,26.19-3.95,12.11-6.87,23.24-8.87,33.84h77.53c.84-4.65,1.83-9.46,3.06-14.51,2.18-8.07,1.39-16.19-1.5-23.4-3.38-8.43-9.71-15.55-18.2-19.65Z"/>
      <path class="cls-5" d="M2051.28,1507.61c-14.64-3-30-4.93-45.37-8-4.13-10.86-12.82-23.86-21.08-31.54-1.16-2.47-2.17-4.53-2.55-5.66-4.68-11.64-10.98-20.89-20.77-26.53-3.76-2.16-9.97-6.46-15.86-9.55l-.51-1.42c-4.81-10.84-7.27-18.85-13.13-23.32-.94-.72-1.96-1.59-3.02-2.57,3.11-6.12,5.65-13.05,7.41-17.29,4.21-10.11-.12-12.38.19-16.02,5.61-4.58,6.45-12.85,1.87-18.46-4.58-5.61-12.85-6.45-18.46-1.87-3.93-.46-6-4.28-17.32-.81-15.32,4.71-30.36,26.88-38.94,40.27-10.77,16.82-7.09,32.68-.58,44.37,1.29,3.12,2.92,6.5,4.74,9.66-2.6,5.5,2.32,20.76,3.5,27.72,1.9,11.26,8.71,19.3,15.92,26.24,2.59,2.51,7.35,3.79,12.49,4.76,1.66,5.21,4.12,10.85,5.23,14.4.75,2.38,1.87,4.22,2.82,6.33h181.2c-11.95-4.67-24.65-8.03-37.77-10.71ZM1920.73,1508.18c-2.49,6.9-10.13-1.06-15.02-9.57,9.13,1.49,17.37,3.05,15.02,9.57Z"/>
      <path class="cls-2" d="M2615.44,1065.85c.6-1.73,1.37-3.44,2.05-5.17-8.25-13.65-18.21-24.43-29.34-33.43-17.97-14.51-40.19-22.44-59.44-37-16.32-12.29-30.84-28.4-48.57-38.3-12.29-6.88-25.69-11.58-40.84-13.09-15.9-1.59-33.09-.21-51.01,3.36-24.14,4.78-50.09,13.84-75.62,21.35-18.79,5.54-37.09,10.95-53.49,8.77-8.42-1.13-23.82-5.54-40.01-11.07-16.96-5.75-43.18-18.54-48.19-21.02-1.36-2.39-1.47-4.99-1.65-7.51-.87-12.33.48-25.17.04-38.26-.43-10.78-2.49-21.31-6.56-31.38-2.81-6.96-6.2-13.88-9.86-20.64-1.44-2.64-4.22-4.45-5.03-7.26-8-21.69,7.91-47.65,7.28-70.56-.21-7.76-2.29-8.31-4.8-13.22-.38-.74-.74-1.3-1.14-2.3,3.01-5.65,1.25-12.37-3.58-16.23-.63-.5-1.11-1.13-1.84-1.51-6.4-3.4-14.35-.96-17.75,5.45-7.87,1.72-8.5-1.22-16.07,3.27-1.69,1.01-3.05,2.51-4.54,3.79-9.75,8.38-16,21.75-23.7,33.75-14.46,22.61-19.5,47.95-19.36,72.32.26,6.46,1.98,12.63,3.72,18.96,2.57,9.31,9.87,17.58,9.61,27.14.11,23.83-2.98,46.98,3.11,68.67,3.77,13.42,10.32,26.43,21.06,38.93,8.17,9.52,26.05,21.94,49.01,32.17,33.46,14.98,78.56,28.1,97.71,30.66,16.18,2.14,33.45,1.3,51.31-1.76,25.02-4.28,51.6-13.21,77.44-21.06,19.39-5.87,38-11.96,54.36-10.32,4.4.46,7.41,3.57,10.65,6.12,10.58,8.43,20.31,18.5,31.01,26.59,16.81,12.67,35.79,20.55,52.47,31.75,4.79,3.23,9.42,6.8,12.73,12.42,2.96,4.45,4.52,9.48,4.99,14.81,1.1,12.25.69,24.79,1.05,36.37.25,23.95.1,47.19-2.13,70.14-2.64,27.06-8.76,53.27-15.67,80.25-1.02,3.99-2.62,7.84-2.64,12-.03,3.94,1.71,5.79,2.54,9.69-4.33,11.42-1.3,23.75,6.63,32.02,3.05,3.19,6.77,5.82,11.17,7.49,15.81,6,33.52-1.97,39.52-17.79.02-.02.04-.03.06-.04,3.53-2.6,5.8-3.63,8.61-6.96,1.4-1.68,2.04-3.82,2.91-5.79,8.76-20.01,13.34-40.98,18.16-61.58,8.8-37.72,13.41-75.95,16.14-116.12-3.69-4.7-7-9.63-9.6-15.05-13.08-27.27-12.62-56.13-2.94-83.85Z"/>
      <path class="cls-4" d="M2893.51,591.04c-2.45,2.07-4.74,4.38-6.61,7.18-8.57,1.68-8.62,4.36-15.46,9.31-4.65,3.4-5.44,9.48-7.63,14.77-7.22,17.39-5.29,38.23-.68,59.8.32,1.48.52,2.93.86,4.42,2.08,9.05,5.08,18.43,8.68,28.04,10.67,28.51,26.63,59.14,39.72,89.53,11.62,26.97,24.61,53.02,13.8,75.55-6.41,13.34-15.91,20.89-26.96,25.13-9.94,3.83-20.63,5.92-31.62,7.1-18.45,1.99-37.74,1.43-55.71,2.3-19.21.91-37.2,3.34-53.52,7.72-13.85,3.72-26.55,8.81-37.27,16.14-8.39,5.75-17.03,12.96-25.42,20.81-10.26,9.56-20.23,20.13-28.93,29.2-17.77,18.45-38.28,44.77-49.29,72.65-.68,1.72-1.45,3.43-2.05,5.17-9.67,27.73-10.13,56.59,2.94,83.85,2.6,5.42,5.9,10.35,9.6,15.05.65.83,1.2,1.71,1.89,2.52,5.01,5.92,16.21,16.28,18.55,18.42,6.33,12.96,9.81,26.05,16.53,38.21,4.62,8.39,10.25,16.49,17.61,24.16,12.99,13.55,24.63,19.09,34.55,28.82,1.77,1.72,3.14,4.03,4.48,7.51,1.34,3.44,1.9,6.75,2.05,10.07.99,21.14-3.67,41.74-.36,64.26,8.19,29.36,20.97,58.77,38.09,84.94,1.6,2.43,2.75,4.91,5.12,6.59,9.68,6.71,8.95,2.06,19.86,5.62,2.23,6.92,9.63,10.7,16.52,8.47,6.89-2.22,10.67-9.65,8.44-16.53,6.97-9.65,8.49-6.08,11.82-17.83.85-3.02-.14-5.87-.55-9.02-3.2-24.58-10.3-49.04-9.61-73.24-.93-9.53.01-18.56,1.19-27.44-15.93-16.27-27.53-36.13-35.54-60.53-3.67-11.22-7.63-23.08-9.74-36.7-.74-7.54,1.01-14.73,4.5-20.85-6.82-5.27-14.21-10.85-22.12-19.29l-18.53-41.15c-6.3-12.58-25.01-30.79-29.38-34.94-2.43-7.84,3.75-15.52,8.24-23.03,6.9-11.49,15.89-21.85,23.68-29.95l39.49-37.38c14.26-9.77,35.87-7.3,58.19-8.05,7.99-.26,16.07-.59,24.15-1.07,26.34-1.55,52.71-4.86,76.24-13.91,23.65-9.08,44.94-23.27,61.97-45.58,6.09-7.98,11.66-16.94,16.56-27.15,12.92-26.93,15.15-56.5,9.45-87.46-9.66-52.52-47.05-110.91-62.61-160.58-2.94-9.4-3.44-17.91-3.94-25.88-.32-4.99-9.54-4.11-9.17-9.27,10.84-16.23,6.49-38.17-9.72-48.99-.99-.66-2.05-1.09-3.08-1.64-12.9-6.91-28.44-5.04-39.3,4.15Z"/>
      <path class="cls-5" d="M1832.31,921.54c-18.28-28.47-30.23-52.27-50.84-66.82-16.68-11.75-38.39-19.44-71.55-18.11-7.13.3-14.11,1.38-21,2.92-15.45,3.49-29.93,11.84-45.79,13.71-22.78,2.72-46.11,1.53-65.97,9.95-13.3,5.63-25.55,14.46-36.28,28.34-8.78,11.38-14.74,24.2-18.61,37.75-1.87,6.6-3.07,13.42-3.95,20.28v42.46l7.86,60.53c.56,5.44.49,11.81-.14,18.71-1.04,11.41-3.69,24.28-7.72,36.96v139.62c18.36-6.54,34.96-18.44,49.02-34.96,37.76-44.35,55.78-125.73,50.85-170.15l-9.66-65.33c-.2-5.7-.24-11.64.52-17.4.62-4.71,1.28-9.55,4.16-13.39l41.16-4.24,59.81-17c9.41-.55,15.35-.61,19.4,3.53,10.15,10.34,16.58,25.51,27.62,41.72,4.04,5.94,8.62,11.13,13.78,15.51,5.88,5.05,12.38,9.25,19.17,13.08,2.79,1.57,6.17,2.25,8.43,4.66,8.75,9.3,14.76,22.03,23.35,33.17,12.03,15.57,24.86,29.43,40.79,39.5,15.03,9.52,28.89,22.53,46.54,18.16,3.77-.94,3.3-1.06,6.58-3.27,6.92,2.18,14.27-1.71,16.43-8.62,2.16-6.9-1.71-14.29-8.63-16.43-1.65-3.22-.15-4.29-2.2-7.17-3.79-5.31-6.13-9.92-9.56-15.26-6.12-9.54-7.1-20.47-11.55-31.55-3.28-8.15-6.78-16.17-10.76-24.01-7.88-15.47-17.7-29.44-28.11-41.4-9.54-10.94-43.08-15.14-33.67-25.54.16-.2.34-.11.5.11Z"/>
      <path class="cls-8" d="M2802.05,171.11c.99,3.96,2.17,7.91,3.03,11.89,1.34-1.8,2.68-3.62,3.76-5.67,4.23-8.04,5.71-16.81,4.8-25.22l-13.58,7.17c-1.52,4.4,1.05,8.03,2,11.82Z"/>
      <path class="cls-8" d="M2669.63,131.28c3.73,5.88,7.73,11.59,12.26,16.94,10.56,12.47,23.27,23.36,36.71,32.82-1.04-4.63-1.86-9.33-2.36-14.12-1.11-10.66-.18-21.75,3.46-33.73,4.72-15.51,13.8-28.23,25.32-39.02,2.84-2.66,6.14-4.96,9.36-7.32-4.52-5.27-8.18-11.17-9.74-18.06-4.63-20.44-8.07-44.4-12.73-68.77h-96.28c5.63,22.76,8.68,46.44,12.22,67.82,1.26,7.63,2.57,15.03,4.13,21.88,3.41,15.1,9.6,28.9,17.65,41.57Z"/>
      <path class="cls-7" d="M2755.11,275.96c-2.99,2.56,8.72,3.66,0,0h0Z"/>
      <path class="cls-7" d="M2719.71,133.18c-3.65,11.99-4.58,23.08-3.46,33.73.5,4.8,1.32,9.5,2.36,14.12.97,4.32,2.14,8.59,3.5,12.79.95,2.94,3.29,5.38,3.52,8.55,2.91,10.53,3.39,20.58,7.97,30.46,2.82,6.09,5.62,8.68,8.71,14.6,2.98,5.7,4.06,11.87,6.48,17.77.48,1.17.92,2.34,1.54,3.48,1.23,2.27,1.16,5.83,3.62,6.78l1.1.46s.05.03.09.05c.63-.54,1.7-1.13,4.01-1.77,2.81,6.67,10.5,9.82,17.18,7.01,5.11-2.14,8.09-7.15,7.98-12.37-.03-1.61-.31-3.24-.97-4.81,3.15-3.52,3.01.42,4.49-4.02,2.11-6.34-.03-12.71,1.88-18.9,1.38-4.47,4.81-5.83,6.65-10.15,3.9-9.17,5.95-17.84,8.89-27.38.98-3.64.85-7.09.94-10.78.08-3.31-.42-6.55-1.11-9.77-.86-3.99-2.04-7.94-3.03-11.89-.95-3.79-3.52-7.42-2-11.82l13.58-7.17,31.3-16.52,33.07-22.04c29.72-11.09,67.25-14.46,103.84-20.29,18.74-2.99,37.2-6.66,54.8-11.42V0h-47.16c-18.45,4.23-37.68,7.44-56.71,10.64-19.03,3.21-37.66,6.58-55.13,10.89-11.03,2.72-21.73,5.73-31.45,9.59-7.35,2.94-14.23,6.7-20.71,11.18-7.61,5.25-14.25,12.14-22.27,16.63-14.4,8.14-33.26,16.51-48.82,27.91-3.22,2.36-6.51,4.66-9.36,7.32-11.52,10.79-20.6,23.51-25.32,39.02Z"/>
      <path class="cls-3" d="M1633.81,180.85c6.27-.32,12.54-2.21,18.1-6.03,5.31,0,7.96.88,12.73-.59,1.51-.5,2.61-1.76,3.89-2.64,21.39-14.47,37.09-27.69,50.25-41.45,23.03-24.16,37.43-49.83,66.78-87.17,12.38-15.94,25.12-28.73,35.66-42.97h-114.13c-21.96,28.58-35.31,49.28-53.68,69.99-9.39,10.57-19.83,21.6-34.84,33.52-.99.8-2.24,1.34-3,2.39-2.62,3.61-1.84,6.38-3.54,10.78-16.05,11.03-20.14,32.97-9.14,49.04,2.74,3.99,6.16,7.23,10,9.7,6.24,4.01,13.58,5.82,20.92,5.44Z"/>
      <path class="cls-7" d="M1635.79,0h-117.47v81.83c27.06-7.32,52.07-17.28,72.66-31.82,18.26-12.9,33.6-29.19,44.81-50.01Z"/>
      <path class="cls-6" d="M3023.21,1375.29c-2.85,2.48,3.49,4.02,8.53,5.18-2.63-4.65-5.35-7.95-8.53-5.18Z"/>
      <path class="cls-6" d="M2983.19,1385c-5.62-1.38-11.52-2.62-17.46-3.86-3.33,1.52-6.64,3.09-9.86,4.89-18.99,10.65-36.5,24.25-51.1,44.05-5.91,8.43-11.57,17.16-15.32,27.27-4.15,11.12-7.41,22.61-10.53,33.31-1.95,10-2.97,18.87-3.06,27.67h63.43c.3-.42.52-.81.83-1.24,4.11-6.96,8.29-14.43,13.02-21.73,2.92-4.49,6.96-7.84,10.87-11.16,13.53-12.42,29.63-16.02,44.88-21.39,9.3-3.26,18.56-6.55,27.75-10.01v-63.3c-.14-.24-.29-.43-.43-.68-9.22,8.1-38.61.13-53.02-3.8Z"/>
      <path class="cls-7" d="M3036.63,1503.49c-.29.12-.55.28-.83.4-14.31,6.12-30,10.68-46.33,14.42h47.17v-14.83Z"/>
      <path class="cls-7" d="M2778.62,1259.77c8,24.4,19.6,44.26,35.54,60.53,5.3,5.41,11.08,10.43,17.36,15.09,18.31,13.57,40.76,22.73,64.15,29.88,23.08,7.06,47.47,11.18,70.07,15.88,5.94,1.23,11.84,2.47,17.46,3.86,14.41,3.94,43.79,11.9,53.02,3.8.14.25.29.44.43.68v-97.09c-1.25.05-2.5-.09-3.76.03-10.74,1.07-32.14-3.15-32.35,6.67-25.14-6.31-53.55-11.86-80.7-18.97-15.68-4.11-30.93-8.28-44.33-15.23-13.14-6.81-27.53-12.92-33.44-27.97-2.38-6.05-2.49-13.14-2.8-20.73-1.9-19.41-19.2-33.64-38.62-31.74-11.87,1.16-21.76,8.12-27.25,17.76-3.49,6.12-5.23,13.31-4.5,20.85,2.1,13.62,6.06,25.48,9.74,36.7ZM3023.21,1375.29c3.18-2.76,5.9.53,8.53,5.18-5.04-1.17-11.38-2.71-8.53-5.18Z"/>
      <path class="cls-5" d="M2823.29,1108.37c1.47,4.58,5.5,7.78,8.52,11.4,15.95,18.97,38.57,30.58,56.33,48.75,10.64,10.89,14.69,25.26,23.24,36.96,7.22,9.87,15.88,18.89,27.2,26.47,28.03,18.73,53.89,23.64,76.62,20.97,7.38-.87,14.52-2.64,21.43-5.1v-139.62c-3.49,10.96-7.97,21.78-13.47,31.31-5.29,9.17-9.77,18.95-18.64,19.94-4.14.46-8.17-2.36-13.26-5.81-3.94-2.66-5.57-6.78-7.68-10.46-4.3-7.51-8.31-15.22-13.12-22.5-4.22-6.42-8.96-12.51-14.51-18.23-16.83-17.33-35.15-30.68-53.4-46.47-1.85-1.59-4.22,1.16-6.38-.2-10.33-20.8-35.61-29.3-56.41-18.97-20.79,10.36-29.28,35.64-18.95,56.4-.53,6.14.68,9.58,2.48,15.16Z"/>
      <path class="cls-5" d="M3036.63,992.02v-42.49c-1.09,8.51-1.56,17.09-1.54,25.55,0,1.64-.06,3.3-.02,4.92l1.56,12.01Z"/>
    </g>
  </g>
</svg>