<?xml version="1.0" encoding="UTF-8"?>
<svg width="1200pt" height="1200pt" version="1.1" viewBox="0 0 1200 1200" xmlns="http://www.w3.org/2000/svg">
 <path d="m1020 90h-840c-49.703 0-90 40.297-90 90v840c0 49.703 40.297 90 90 90h840c49.703 0 90-40.297 90-90v-840c0-49.703-40.297-90-90-90zm0 930h-840v-600h840zm0-660h-840v-180h840z" fill="#fff"/>
 <path d="m660 240h60v60h-60z" fill="#fff"/>
 <path d="m780 240h60v60h-60z" fill="#fff"/>
 <path d="m900 240h60v60h-60z" fill="#fff"/>
 <path d="m801.21 861.21 141.21-141.21-141.21-141.21-42.43 42.43 98.793 98.785-98.793 98.785z" fill="#fff"/>
 <path d="m630.89 472.68 58.219 14.555-119.98 479.98-58.219-14.555z" fill="#fff"/>
 <path d="m441.21 818.79-98.793-98.785 98.793-98.785-42.43-42.43-141.21 141.21 141.21 141.21z" fill="#fff"/>
</svg>
