<?xml version="1.0" encoding="UTF-8"?>
<svg width="1200pt" height="1200pt" version="1.1" viewBox="0 0 1200 1200" xmlns="http://www.w3.org/2000/svg">
 <path d="m600 600c-144.74 0-262.5-117.75-262.5-262.5s117.75-262.5 262.5-262.5 262.5 117.75 262.5 262.5-117.75 262.5-262.5 262.5zm0-450c-103.41 0-187.5 84.094-187.5 187.5s84.094 187.5 187.5 187.5 187.5-84.094 187.5-187.5-84.094-187.5-187.5-187.5zm0 975c-115.27 0-231.28-10.406-344.72-31.031-39.281-7.125-67.781-41.391-67.781-81.469 0-206.76 168.24-375 375-375h75c206.76 0 375 168.24 375 375v0.09375c0 40.031-28.406 74.203-67.453 81.328-113.53 20.625-229.64 31.078-345.05 31.078zm-37.5-412.5c-165.42 0-300 134.58-300 300 0 3.6562 2.7188 7.0312 6.1406 7.6875 218.34 39.562 444.84 39.516 663-0.046875 3.3281-0.60938 5.9062-3.8438 5.9062-7.5469v-0.09375c0-165.42-134.58-300-300-300z"/>
</svg>
