<?xml version="1.0" encoding="UTF-8"?>
<svg width="1200pt" height="1200pt" version="1.1" viewBox="0 0 1200 1200" xmlns="http://www.w3.org/2000/svg">
 <path d="m1027.7 611.29c5.2969 29.297 30.844 51.469 61.688 51.469 34.547 0 62.766-28.219 62.766-62.766s-28.219-62.766-62.766-62.766c-30.703 0-56.297 22.312-61.688 51.469h-152.63v-105.94h95.531c6.2344 0 11.297-5.0625 11.297-11.297v-99.234c29.297-5.2969 51.469-30.844 51.469-61.688 0-34.547-28.219-62.766-62.766-62.766s-62.766 28.219-62.766 62.766c0 30.703 22.312 56.297 51.469 61.688v87.938h-84.375v-43.078c0-50.859-41.391-92.156-92.156-92.156h-43.078v-147.1h287.76c5.2969 29.297 30.844 51.469 61.688 51.469 34.547 0 62.766-28.219 62.766-62.766 0-34.547-28.219-62.766-62.766-62.766-30.703 0-56.297 22.312-61.688 51.469l-298.92 0.046874c-6.2344 0-11.297 5.0625-11.297 11.297v158.39h-105.94v-152.68c29.297-5.2969 51.469-30.844 51.469-61.688 0-34.406-28.219-62.625-62.766-62.625s-62.766 28.219-62.766 62.766c0 30.703 22.312 56.297 51.469 61.688v152.53h-105.94v-95.531c0-6.2344-5.0625-11.297-11.297-11.297h-99.234c-5.2969-29.297-30.844-51.469-61.688-51.469-34.547 0-62.766 28.219-62.766 62.766s28.219 62.766 62.766 62.766c30.703 0 56.297-22.312 61.688-51.469h87.938v84.375h-43.078c-50.859 0-92.156 41.391-92.156 92.156v43.078l-147.1-0.046875v-287.86c29.297-5.2969 51.469-30.844 51.469-61.688 0-34.547-28.219-62.766-62.766-62.766-34.547 0-62.766 28.219-62.766 62.766 0 30.703 22.312 56.297 51.469 61.688v299.06c0 6.2344 5.0625 11.297 11.297 11.297h158.39v105.94l-152.63-0.046875c-5.2969-29.297-30.844-51.469-61.688-51.469-34.406 0-62.625 28.219-62.625 62.766s28.219 62.766 62.766 62.766c30.703 0 56.297-22.312 61.688-51.469h152.53v105.94h-95.531c-6.2344 0-11.297 5.0625-11.297 11.297v99.234c-29.297 5.2969-51.469 30.844-51.469 61.688 0 34.547 28.219 62.766 62.766 62.766s62.766-28.219 62.766-62.766c0-30.703-22.312-56.297-51.469-61.688v-87.938h84.234v43.078c0 50.859 41.391 92.156 92.156 92.156h43.078v147.14l-287.76-0.046874c-5.2969-29.297-30.844-51.469-61.688-51.469-34.547 0-62.766 28.172-62.766 62.766 0 34.547 28.219 62.766 62.766 62.766 30.703 0 56.297-22.312 61.688-51.469h299.06c6.2344 0 11.297-5.0625 11.297-11.297v-158.39h105.94v152.53c-29.297 5.2969-51.469 30.844-51.469 61.688 0 34.547 28.219 62.766 62.766 62.766s62.766-28.219 62.766-62.766c0-30.703-22.312-56.297-51.469-61.688l-0.046875-152.53h105.94v95.531c0 6.2344 5.0625 11.297 11.297 11.297h99.234c5.2969 29.297 30.844 51.469 61.688 51.469 34.547 0 62.766-28.219 62.766-62.766s-28.219-62.766-62.766-62.766c-30.703 0-56.297 22.312-61.688 51.469h-87.938v-84.375h43.078c50.859 0 92.156-41.391 92.156-92.156v-43.078h147.14v287.76c-29.297 5.2969-51.469 30.844-51.469 61.688 0 34.547 28.219 62.766 62.766 62.766 34.547 0 62.766-28.219 62.766-62.766 0-30.703-22.312-56.297-51.469-61.688l-0.09375-298.92c0-6.2344-5.0625-11.297-11.297-11.297h-158.39v-105.94zm61.547-51.516c22.219 0 40.219 18 40.219 40.219s-18 40.219-40.219 40.219-40.219-18-40.219-40.219c0.046875-22.219 18.047-40.219 40.219-40.219zm-158.86-249.24c0-22.219 18-40.219 40.219-40.219s40.219 18 40.219 40.219-18 40.219-40.219 40.219c-22.125 0-40.219-18-40.219-40.219zm158.86-184.18c22.219 0 40.219 18 40.219 40.219s-18 40.219-40.219 40.219-40.219-18-40.219-40.219c0.046875-22.219 18.047-40.219 40.219-40.219zm-529.45-15.609c0-22.219 18-40.219 40.219-40.219s40.219 18 40.219 40.219-18 40.219-40.219 40.219c-22.219-0.046875-40.219-18.047-40.219-40.219zm-249.24 158.86c-22.219 0-40.219-18-40.219-40.219s18-40.219 40.219-40.219 40.219 18 40.219 40.219c0 22.125-18 40.219-40.219 40.219zm-184.18-158.86c0-22.219 18-40.219 40.219-40.219s40.219 18 40.219 40.219-18 40.219-40.219 40.219c-22.219-0.046875-40.219-18.047-40.219-40.219zm-15.609 529.45c-22.219 0-40.219-18-40.219-40.219s18-40.219 40.219-40.219 40.219 18 40.219 40.219c-0.046875 22.219-18.047 40.219-40.219 40.219zm158.86 249.24c0 22.219-18 40.219-40.219 40.219s-40.219-18-40.219-40.219 18-40.219 40.219-40.219 40.219 18 40.219 40.219zm-158.86 184.18c-22.219 0-40.219-18-40.219-40.219s18-40.219 40.219-40.219 40.219 18 40.219 40.219c-0.046875 22.219-18.047 40.219-40.219 40.219zm529.45 15.609c0 22.219-18 40.219-40.219 40.219s-40.219-18-40.219-40.219 18-40.219 40.219-40.219c22.219 0.046875 40.219 18.047 40.219 40.219zm249.24-158.86c22.219 0 40.219 18 40.219 40.219s-18 40.219-40.219 40.219-40.219-18-40.219-40.219c0-22.125 18-40.219 40.219-40.219zm184.18 158.86c0 22.219-18 40.219-40.219 40.219s-40.219-18-40.219-40.219 18-40.219 40.219-40.219c22.219 0.046875 40.219 18.047 40.219 40.219zm-221.16-306.37c0 38.391-31.219 69.609-69.609 69.609h-365.72c-38.391 0-69.609-31.219-69.609-69.609v-365.72c0-38.391 31.219-69.609 69.609-69.609h365.76c38.391 0 69.609 31.219 69.609 69.609zm-65.391-235.18c10.688-22.078 11.156-48.703-0.9375-71.859-13.219-25.312-38.766-41.391-66.703-42.938-7.7812-28.078-33.609-48.703-64.078-48.703-23.062 0-43.312 11.766-55.312 29.531-2.3906-3.4688-5.0625-6.8438-8.0625-9.8438-12.609-12.703-29.391-19.688-47.297-19.688-30 0-56.156 20.391-64.078 48.609-4.9219 0.23438-9.9375 1.0781-14.859 2.2969-21 5.1562-38.766 18.375-49.781 36.938-13.781 23.391-14.766 51.609-3.1406 75.609-3.1406 2.5312-6.1406 5.3906-8.7656 8.5312-13.922 15.938-20.297 37.219-17.391 58.219 3.9375 29.391 25.219 53.062 53.156 60.703-2.5312 12.938-1.3125 26.625 4.2188 39.609 7.7812 18.234 23.062 31.922 41.766 37.688 0 8.5312 1.6875 17.156 5.2969 25.453 10.078 23.391 32.156 37.922 57.609 37.922 21.375 0 40.219-10.781 51.469-27.141 11.391 16.312 30.141 27.141 51.469 27.141 26.297 0 48.609-15.234 58.312-39.844 3-7.6875 4.4531-15.703 4.4531-23.625 17.156-5.3906 31.781-17.531 40.078-33.844 7.0781-13.922 8.8594-29.156 6-43.453 23.766-6.4688 42.938-24.609 50.531-48.703 8.8125-28.922-0.89062-59.906-23.953-78.609zm-198.37 205.31c0 22.219-18 40.219-40.219 40.219-19.453 0-31.781-12.609-36.844-24.375-5.0625-11.859-5.7656-29.531 7.6875-43.688 4.3125-4.5469 4.0781-11.625-0.375-15.938-4.5469-4.3125-11.625-4.0781-15.938 0.375-5.7656 6-10.078 12.938-12.938 20.297-11.297-4.2188-20.391-12.844-25.312-24.234-8.625-20.156-1.4531-43.453 17.062-55.312 5.2969-3.375 6.7031-10.312 3.375-15.609-3.375-5.2969-10.312-6.7031-15.609-3.375-9.1406 5.8594-16.453 13.547-21.703 22.453-20.391-4.6875-36-21.469-38.859-42.609-2.0625-14.531 2.3906-29.297 12.141-40.312 9.6094-11.062 23.531-17.391 38.156-17.391 6.2344 0 11.297-5.0625 11.297-11.297 0-6.2344-5.0625-11.297-11.297-11.297-9.375 0-18.375 1.7812-26.859 5.0625-7.4531-16.781-6.4688-36.703 3-52.688 7.9219-13.453 20.625-22.922 35.766-26.625 15.141-3.7031 30.703-1.3125 43.922 6.8438 5.2969 3.2344 12.234 1.5469 15.469-3.7031 3.2344-5.2969 1.5469-12.234-3.7031-15.469-7.3125-4.4531-15.141-7.6875-23.156-9.7031 6.4688-16.547 22.688-28.219 41.062-28.219 11.766 0 22.922 4.6875 31.219 13.078 8.2969 8.3906 12.844 19.312 12.703 30.938v78.609c-7.4531-7.6875-16.688-14.625-27.703-19.781-5.625-2.625-12.375-0.23438-15 5.3906s-0.23438 12.375 5.3906 15c22.688 10.547 36.938 32.391 37.219 46.547v93.469c-8.625-1.5469-20.297-0.70313-34.781 7.0781-5.5312 3-7.5469 9.8438-4.5469 15.234 2.0625 3.7031 5.8594 5.8594 9.9375 5.8594 1.7812 0 3.6094-0.46875 5.2969-1.3125 13.219-7.0781 20.766-5.2969 24.141-3.4688zm200.53-133.31c-5.3906 17.391-19.688 30.375-37.078 34.312-5.1562-8.7656-12.469-16.547-21.703-22.312-5.2969-3.375-12.234-1.7812-15.609 3.375-3.375 5.2969-1.7812 12.234 3.375 15.609 19.453 12.469 26.297 37.312 15.844 57.844-5.1562 10.078-13.781 17.766-24.234 21.703-3.375-8.5312-8.625-16.453-15.703-23.062-4.5469-4.2188-11.625-3.9375-15.938 0.60938-4.2188 4.5469-3.9375 11.625 0.60938 15.938 14.766 13.688 14.859 31.781 9.9375 44.297-4.7812 12.375-17.156 25.547-37.312 25.547-22.219 0-40.219-18.141-40.219-40.312l-0.046875-202.31c8.3906-7.0781 19.688-13.688 31.453-17.859 5.8594-2.0625 8.8594-8.5312 6.8438-14.391-2.0625-5.8594-8.5312-8.8594-14.391-6.8438-8.3906 3-16.547 6.8438-23.859 11.297v-72.375c0-24.234 19.781-44.062 44.062-44.062 24.234 0 44.062 19.781 44.062 44.062 0 9-2.7656 17.766-7.9219 25.219-3.6094 5.1562-2.2969 12.141 2.7656 15.703 5.1562 3.6094 12.141 2.2969 15.703-2.7656 6.8438-9.8438 10.922-21.234 11.766-33.141 18.703 2.1562 35.531 13.453 44.531 30.609 14.531 27.938 3.7031 62.625-24.141 77.391-5.5312 2.8594-7.5469 9.7031-4.6875 15.234s9.7031 7.5469 15.234 4.6875c8.5312-4.4531 15.844-10.312 21.844-17.062 14.812 12.984 20.812 33.609 14.812 53.062zm-239.53-3.1406c-0.84375 5.625-5.625 9.7031-11.156 9.7031-0.46875 0-1.0781 0-1.5469-0.14062-42.141-6-52.078-40.547-52.453-42-1.6875-6 1.9219-12.234 7.9219-13.781 6-1.6875 12.141 1.7812 13.781 7.7812 0.14062 0.46875 1.6875 5.0625 5.625 10.219 3-8.0625 8.5312-15.844 18.375-20.766 5.5312-2.7656 12.375-0.46875 15.141 5.1562 2.7656 5.5312 0.46875 12.375-5.1562 15.141-6.2344 3.1406-8.0625 9.375-8.5312 14.156 2.5312 0.84375 5.2969 1.5469 8.2969 1.9219 6.375 0.75 10.688 6.375 9.7031 12.609zm160.22-31.688c-5.3906 9.4688-12.609 16.312-20.625 20.859 1.4531 10.453 0 24-10.078 34.781-2.2969 2.3906-5.2969 3.6094-8.2969 3.6094-2.7656 0-5.5312-0.9375-7.6875-3-4.5469-4.2188-4.9219-11.297-0.70313-15.938 3.6094-3.8438 4.5469-8.5312 4.5469-12.609-7.9219 0.84375-15.844 0.14062-23.062-1.7812-6-1.5469-9.6094-7.7812-7.9219-13.781 1.5469-6 7.7812-9.6094 13.781-7.9219 13.688 3.6094 31.453 0.375 40.312-15.469 3-5.3906 9.9375-7.3125 15.375-4.3125 5.4375 3.3281 7.3594 10.172 4.3594 15.562z" fill="#fff"/>
</svg>
