<?xml version="1.0" encoding="UTF-8"?>
<svg width="1200pt" height="1200pt" version="1.1" viewBox="0 0 1200 1200" xmlns="http://www.w3.org/2000/svg">
 <path d="m170.63 209.63c22.453 0 40.688-18.234 40.688-40.688s-18.234-40.688-40.688-40.688-40.688 18.234-40.688 40.688 18.234 40.688 40.688 40.688zm0-47.625c3.8438 0 6.9375 3.1406 6.9375 6.9375 0 3.8438-3.1406 6.9375-6.9375 6.9375-3.8438 0-6.9375-3.1406-6.9375-6.9375 0-3.8438 3.1406-6.9375 6.9375-6.9375zm87.234 47.625c22.453 0 40.688-18.234 40.688-40.688s-18.234-40.688-40.688-40.688-40.688 18.234-40.688 40.688 18.234 40.688 40.688 40.688zm0-47.625c3.8438 0 6.9375 3.1406 6.9375 6.9375 0 3.8438-3.1406 6.9375-6.9375 6.9375-3.8438 0-6.9375-3.1406-6.9375-6.9375 0-3.8438 3.1406-6.9375 6.9375-6.9375zm399.37 6.9375c0-9.3281 7.5469-16.875 16.875-16.875h286.82c9.3281 0 16.875 7.5469 16.875 16.875s-7.5469 16.875-16.875 16.875h-286.82c-9.3281 0-16.875-7.5469-16.875-16.875zm-312.1 40.688c22.453 0 40.688-18.234 40.688-40.688s-18.234-40.688-40.688-40.688-40.688 18.234-40.688 40.688 18.234 40.688 40.688 40.688zm0-47.625c3.8438 0 6.9375 3.1406 6.9375 6.9375 0 3.8438-3.1406 6.9375-6.9375 6.9375-3.8438 0-6.9375-3.1406-6.9375-6.9375 0-3.8438 3.1406-6.9375 6.9375-6.9375zm93.609 334.03v-98.906c0-9.3281-7.5469-16.875-16.875-16.875h-212.63c-9.3281 0-16.875 7.5469-16.875 16.875v98.906c0 9.3281 7.5469 16.875 16.875 16.875h212.63c9.3281 0 16.875-7.5469 16.875-16.875zm-33.703-16.875h-178.87v-65.156h178.87zm-9.7969 240.47h-159.32c-9.3281 0-16.875 7.5469-16.875 16.875v159.32c0 9.3281 7.5469 16.875 16.875 16.875h159.32c9.3281 0 16.875-7.5469 16.875-16.875v-159.32c0-9.3281-7.5469-16.875-16.875-16.875zm-16.875 159.32h-125.58v-125.58h125.58zm474.14-471.74c0 9.3281-7.5469 16.875-16.875 16.875h-355.78c-9.3281 0-16.875-7.5469-16.875-16.875 0-9.3281 7.5469-16.875 16.875-16.875h355.78c9.3281 0 16.875 7.5469 16.875 16.875zm-372.66 111.19c-9.3281 0-16.875-7.5469-16.875-16.875 0-9.3281 7.5469-16.875 16.875-16.875h219.19c9.3281 0 16.875 7.5469 16.875 16.875 0 9.3281-7.5469 16.875-16.875 16.875zm372.66 61.547c0 9.3281-7.5469 16.875-16.875 16.875h-600.28c-9.3281 0-16.875-7.5469-16.875-16.875 0-9.3281 7.5469-16.875 16.875-16.875h600.28c9.3281 0 16.875 7.5469 16.875 16.875zm-136.64 94.312c0 9.3281-7.5469 16.875-16.875 16.875h-463.64c-9.3281 0-16.875-7.5469-16.875-16.875 0-9.3281 7.5469-16.875 16.875-16.875h463.64c9.3281 0 16.875 7.5469 16.875 16.875zm397.64 156.28h-17.578c-4.7344-17.672-11.766-34.594-20.906-50.438l12.469-12.469c9.5156-9.5156 9.5156-24.984 0-34.5l-13.031-13.031-0.046875-569.72c0-45.656-37.125-82.781-82.781-82.781h-846.74c-45.656 0-82.781 37.125-82.781 82.781v846.74c0 45.656 37.125 82.781 82.781 82.781h591.61l2.1094 2.1094c9.5156 9.5156 24.984 9.5156 34.5 0l2.1094-2.1094h30.891c9.7031 4.2656 19.688 7.7812 29.953 10.547v17.578c0 13.453 10.922 24.375 24.375 24.375h61.688c13.453 0 24.375-10.922 24.375-24.375v-17.578c17.672-4.7344 34.594-11.766 50.438-20.906l12.469 12.469c9.5156 9.5156 24.984 9.5156 34.5 0l43.594-43.594c9.5156-9.5156 9.5156-24.984 0-34.5l-12.469-12.469c9.1875-15.891 16.172-32.766 20.906-50.438h17.578c13.453 0 24.375-10.922 24.375-24.375v-61.688c0-13.453-10.922-24.375-24.375-24.375zm-968.63-729.19h846.74c27.047 0 49.031 21.984 49.031 49.031v86.156h-944.81v-86.156c0-27.047 21.984-49.031 49.031-49.031zm0 944.81c-27.047 0-49.031-21.984-49.031-49.031v-726.84h944.81v416.58c-4.0781-2.9062-8.9531-4.5-14.062-4.5-5.3906 0-10.547 1.7812-14.766 5.0156v-371.34c0-9.3281-7.5469-16.875-16.875-16.875h-853.4c-9.3281 0-16.875 7.5469-16.875 16.875v684.42c0 9.3281 7.5469 16.875 16.875 16.875h546.61c-1.1719 7.4531 1.0781 15.328 6.7969 21.094l7.7812 7.7812zm777.14-407.11h-61.688c-13.453 0-24.375 10.922-24.375 24.375v17.578c-17.672 4.7344-34.594 11.766-50.438 20.906l-12.422-12.422c-4.5938-4.5938-10.734-7.125-17.25-7.125s-12.656 2.5312-17.25 7.125l-43.594 43.594c-3.1406 3.1406-5.2969 7.0312-6.375 11.25h-208.74c-9.3281 0-16.875 7.5469-16.875 16.875 0 9.3281 7.5469 16.875 16.875 16.875h225.61l1.9219 1.9219c-9.1875 15.891-16.172 32.766-20.906 50.438h-17.578c-7.2188 0-13.641 3.1406-18.141 8.1094h-170.9c-9.3281 0-16.875 7.5469-16.875 16.875 0 9.3281 7.5469 16.875 16.875 16.875h164.68v44.203c0 13.453 10.922 24.375 24.375 24.375h17.578c3.9844 14.812 9.5625 29.016 16.641 42.609l-544.74 0.046876v-650.68h819.61v359.44c-10.219-4.5938-20.766-8.3906-31.641-11.297v-17.578c0-13.453-10.922-24.375-24.375-24.375zm182.11 268.18h-21.609c-8.0625 0-14.953 5.6719-16.547 13.594-4.5469 22.828-13.453 44.297-26.438 63.75-4.4531 6.7031-3.6094 15.609 2.1094 21.281l15.281 15.281-30.375 30.375-15.281-15.281c-5.6719-5.6719-14.625-6.5625-21.281-2.1094-19.406 12.984-40.875 21.844-63.75 26.438-7.875 1.5938-13.594 8.4844-13.594 16.547v21.609h-42.938v-21.609c0-8.0625-5.6719-14.953-13.594-16.547-22.828-4.5469-44.297-13.453-63.75-26.438-6.7031-4.4531-15.609-3.6094-21.281 2.1094l-9.9375 9.9375h-10.688l-25.031-25.031 15.281-15.281c5.6719-5.6719 6.5625-14.625 2.1094-21.281-12.984-19.406-21.844-40.875-26.438-63.75-1.5938-7.875-8.5312-13.594-16.547-13.594h-21.609v-34.828h20.766c9.3281 0 16.875-7.5469 16.875-16.875 0-0.79688-0.09375-1.5938-0.1875-2.3438 0.28125-0.79688 0.5625-1.6406 0.70312-2.4844 4.5469-22.828 13.453-44.297 26.438-63.75 4.4531-6.7031 3.6094-15.609-2.1094-21.281l-15.281-15.281 30.375-30.375 15.281 15.281c5.6719 5.6719 14.625 6.5625 21.281 2.1094 19.406-12.984 40.875-21.844 63.75-26.438 7.875-1.5938 13.594-8.4844 13.594-16.547v-21.609h42.938v21.609c0 8.0625 5.6719 14.953 13.594 16.547 22.828 4.5469 44.297 13.453 63.75 26.438 6.7031 4.4531 15.609 3.6094 21.281-2.1094l15.281-15.281 30.422 30.422-15.281 15.281c-5.6719 5.6719-6.5625 14.625-2.1094 21.281 12.984 19.453 21.844 40.875 26.438 63.75 1.5938 7.875 8.4844 13.594 16.547 13.594h21.609v42.938zm-207-177.79c-41.766-1.5938-81.609 13.172-112.27 41.578s-48.375 67.031-49.969 108.8 13.172 81.609 41.578 112.27 67.031 48.422 108.8 49.969c2.0156 0.09375 4.0312 0.14062 6.0469 0.14062 83.531 0 153.05-66.328 156.24-150.47 3.2812-86.203-64.172-159-150.37-162.28zm116.67 160.97c-2.5781 67.594-59.672 120.47-127.26 117.94-32.766-1.2656-63.047-15.188-85.312-39.188-22.266-24.047-33.844-55.312-32.625-88.031 1.2656-32.766 15.188-63.047 39.188-85.312 22.875-21.188 52.266-32.719 83.25-32.719 1.5938 0 3.1875 0.046875 4.7812 0.09375 67.594 2.5781 120.47 59.672 117.94 127.26zm-91.312-48.75-30.328 98.156c-2.25 7.2656-8.9062 11.906-16.125 11.906-1.6406 0-3.3281-0.23438-4.9688-0.75-8.9062-2.7656-13.875-12.188-11.156-21.094l30.328-98.156c2.7656-8.9062 12.188-13.922 21.094-11.156s13.875 12.188 11.156 21.094zm-75.562 18.094-24.891 23.344 23.016 25.172c6.2812 6.8906 5.8125 17.578-1.0781 23.859-3.2344 2.9531-7.3125 4.4062-11.391 4.4062-4.5938 0-9.1406-1.8281-12.469-5.4844l-34.266-37.453c-6.2344-6.7969-5.8125-17.344 0.89062-23.672l37.031-34.781c6.7969-6.375 17.484-6.0469 23.859 0.75s6.0469 17.484-0.75 23.859zm115.27-19.312 34.266 37.453c6.2344 6.7969 5.8125 17.344-0.89062 23.672l-37.031 34.734c-3.2344 3.0469-7.4062 4.5938-11.531 4.5938-4.5 0-9-1.7812-12.281-5.3438-6.375-6.7969-6.0469-17.484 0.75-23.859l24.891-23.344-23.016-25.172c-6.2812-6.8906-5.8125-17.578 1.0781-23.859s17.578-5.8125 23.859 1.0781z"/>
</svg>
